<?xml version="1.0" encoding="utf-8"?>
<!-- Generator: Adobe Illustrator 23.0.1, SVG Export Plug-In . SVG Version: 6.00 Build 0)  -->
<svg version="1.1" id="Layer_1" xmlns="http://www.w3.org/2000/svg" xmlns:xlink="http://www.w3.org/1999/xlink" x="0px" y="0px"
	 viewBox="0 0 469 135.3" style="enable-background:new 0 0 469 135.3;" xml:space="preserve">
<style type="text/css">st0{fill:#FFFFFF;}</style>
<g>
	<path class="st0" d="M217.3,5.5C249,5.5,271,26,271,56.1c0,29.9-22.2,50.5-54.7,50.5h-39.8c-1.4,0-2.6-1.2-2.6-2.6V8.1
		c0-1.4,1.2-2.6,2.6-2.6H217.3z M199.5,83.5c0,1.4,1.2,2.6,2.6,2.6h15.7c15.7,0,27-12.1,27-29.9c0-17.9-11.8-30.2-28.2-30.2h-14.6
		c-1.4,0-2.6,1.2-2.6,2.6V83.5z"/>
	<path class="st0" d="M345.2,55.8V104c0,1.4-1.2,2.6-2.6,2.6h-19.2c-1.4,0-2.6-1.2-2.6-2.6v0c0-2.2-2.5-3.4-4.2-2.1
		c-5,3.9-11.6,5.9-19.6,5.9c-16.6,0-26.7-10.1-26.7-24.4c0-14.7,10.5-23.4,29.9-23.5h20.5v-1.2c0-7.7-5.1-12.3-15.2-12.3
		c-5.8,0-13.3,1.9-20.8,5.3c-1.4,0.6-3,0-3.6-1.3l-5-11.6c-0.6-1.3,0-2.9,1.3-3.4c11.2-5,21.6-7.7,33.7-7.7
		C332.6,27.6,345,38.1,345.2,55.8z M320.6,79.8v-3.9c0-1.4-1.2-2.6-2.6-2.6h-13.1c-7.5,0-11.3,2.6-11.3,8.4c0,5.6,4,9.2,11,9.2
		c7.6,0,14.2-4.2,15.9-10.3C320.6,80.3,320.6,80,320.6,79.8z"/>
	<path class="st0" d="M469,55.8V104c0,1.4-1.2,2.6-2.6,2.6h-19.2c-1.4,0-2.6-1.2-2.6-2.6v0c0-2.2-2.5-3.4-4.2-2.1
		c-5,3.9-11.6,5.9-19.6,5.9c-16.6,0-26.7-10.1-26.7-24.4c0-14.7,10.5-23.4,29.9-23.5h20.5v-1.2c0-7.7-5.1-12.3-15.2-12.3
		c-5.8,0-13.3,1.9-20.8,5.3c-1.4,0.6-3,0-3.6-1.3l-5-11.6c-0.6-1.3,0-2.9,1.3-3.4c11.2-5,21.6-7.7,33.7-7.7
		C456.5,27.6,468.9,38.1,469,55.8z M444.5,79.8v-3.9c0-1.4-1.2-2.6-2.6-2.6h-13.1c-7.5,0-11.3,2.6-11.3,8.4c0,5.6,4,9.2,11,9.2
		c7.6,0,14.2-4.2,15.9-10.3C444.4,80.3,444.5,80,444.5,79.8z"/>
	<path class="st0" d="M388.7,89.4c-0.3-1.5-1.7-2.4-3.1-2.1c-1.2,0.3-2.2,0.4-3.2,0.4c-4.6,0.1-7.2-2.5-7.2-8.5V51.3
		c0-1.4,1.2-2.6,2.6-2.6h13.7c1.4,0,2.6-1.2,2.6-2.6V34.8c0-1.4-1.2-2.6-2.6-2.6h-13.7c-1.4,0-2.6-1.2-2.6-2.6V13.3
		c0-1.4-1.2-2.6-2.6-2.6h-19.6c-1.4,0-2.6,1.2-2.6,2.6v19v16.3v34.4c0,16.2,10.8,24.7,25.8,24.7c5.6,0,11.2-1.1,16.1-3.1
		c1.6-0.6,2.1-2.6,1.1-4C391,97.4,389.4,93.6,388.7,89.4z"/>
	<path class="st0" d="M84.2,68.1c0,23.5-14.1,39.1-35.7,39.1c-7.4,0-13.8-2.2-18.8-6.2c-2-1.6-4.8-0.2-4.8,2.3v0c0,1.7-1.3,3-3,3H3
		c-1.7,0-3-1.3-3-3V3c0-1.7,1.3-3,3-3h18.8c1.7,0,3,1.3,3,3v29c0,2.5,2.9,3.9,4.9,2.3c4.9-3.9,11.1-6.1,18.2-6.1
		C69.7,28.2,84.2,44.2,84.2,68.1z M59.2,67.4c0-11.8-7-20.1-17.3-20.1c-10,0-17.1,8.3-17.1,20.1c0,12,7,20.2,17.1,20.2
		C52.2,87.6,59.2,79.3,59.2,67.4z"/>
	<path class="st0" d="M130.6,114.4c-5.7,14.1-15.5,20.9-29.8,20.9c-7.3,0-13.4-1.8-19.3-5.6c-1.8-1.2-2.4-3.6-1.2-5.5l6.2-10.1
		c1.1-1.9,3.5-2.4,5.4-1.3c2.3,1.3,4.5,1.9,7,1.9c4.4,0,7.6-2,9.6-6.2l1.1-2.2c0.5-1,0.5-2.3,0.1-3.3l-29-68.3
		c-1.1-2.7,0.8-5.6,3.7-5.6h16.6c1.7,0,3.2,1.1,3.8,2.6l13.9,37.8c1.3,3.6,6.4,3.5,7.6-0.1l12.3-37.5c0.5-1.7,2.1-2.8,3.8-2.8h15.8
		c2.8,0,4.8,2.9,3.8,5.5L130.6,114.4z"/>
</g>
</svg>
