<?xml version="1.0" encoding="UTF-8"?><svg id="a" xmlns="http://www.w3.org/2000/svg" viewBox="0 0 424.3 123.5"><path d="M174.5,53.7c-14.1-3.6-17.6-5.4-17.6-10.7v-.2c0-4,3.6-7.1,10.5-7.1s14,3,21.3,8.1l9.3-13.6c-8.3-6.7-18.5-10.4-30.4-10.4-16.7,0-28.6,9.8-28.6,24.7v.2c0,16.2,10.6,20.8,27.1,25,13.7,3.5,16.5,5.8,16.5,10.4v.2c0,4.8-4.4,7.7-11.8,7.7-9.3,0-17.1-3.9-24.4-9.9l-10.6,12.7c9.8,8.8,22.3,13.1,34.7,13.1,17.6,0,30-9.1,30-25.4v-.2c0-14.3-9.4-20.3-26-24.6Z" style="fill:#fff;"/><rect x="214.6" y="17.3" width="18.7" height="15.8" style="fill:#fff;"/><rect x="215.1" y="40" width="17.8" height="62.6" style="fill:#fff;"/><path d="M292.3,48.2c-4.8-5.3-10.5-9.3-20.2-9.3-14.4,0-27.8,10.5-27.8,29.2v.2c0,18.6,13.2,29.2,27.8,29.2,9.5,0,15.2-3.9,20.4-10.2v3c0,11.2-5.7,17.1-17.9,17.1-8.3,0-14.7-2.1-21.1-5.7l-6.1,13.3c7.9,4.2,17.5,6.5,27.7,6.5,12.2,0,21.1-2.6,27-8.4,5.3-5.3,7.9-13.4,7.9-24.7V40h-17.8v8.2h.1Zm.2,20.1c0,8.5-6.7,14.5-15.3,14.5s-15.2-5.8-15.2-14.5v-.2c0-8.5,6.5-14.5,15.2-14.5s15.3,6,15.3,14.5v.2Z" style="fill:#fff;"/><path d="M359.6,38.8c-9,0-14.3,4.8-18.3,10V17.3h-17.8V102.6h17.8v-34.9c0-8.4,4.3-12.7,11.1-12.7s10.7,4.3,10.7,12.7v34.9h17.8V62.1c-.1-14.4-7.9-23.3-21.3-23.3Z" style="fill:#fff;"/><path d="M424.3,55.2v-15.2h-14.7V24h-17.8v60.8c0,14.5,7.4,18.8,18.2,18.8,6,0,10.3-1.4,14-3.6v-14.2c-2.6,1.4-5.5,2.2-8.8,2.2-4,0-5.7-2-5.7-6.1v-26.7h14.8Z" style="fill:#fff;"/><path d="M0,30.9v61.7l53.5,30.9,53.5-30.9V30.9L53.5,0,0,30.9Zm53.5,58L6.5,61.8l47-27.1,47,27.1-47,27.1Z" style="fill:#fff;"/><rect x="44" y="52.3" width="18.9" height="18.9" style="fill:#fff;"/></svg>