<svg xmlns="http://www.w3.org/2000/svg" xmlns:xlink="http://www.w3.org/1999/xlink" x="0px" y="0px" width="48px" height="48px" viewBox="0 0 48 48"><g transform="translate(0, 0)"><path d="M38,6H10a4,4,0,0,0-4,4V38a4,4,0,0,0,4,4H38a4,4,0,0,0,4-4V10A4,4,0,0,0,38,6ZM37,36a1,1,0,0,1-1,1H12a1,1,0,0,1-1-1V12a1,1,0,0,1,1-1H36a1,1,0,0,1,1,1Z" fill="#444444"></path><path d="M13,13V35H35V13ZM24.971,29.9l-1.284-3.568H18.774L17.518,29.9H15.3L20.11,17H22.4L27.2,29.9ZM31,29.9H29V17.053h2Z" fill="#444444" data-color="color-2"></path><path d="M21.564,19.918q-.233-.756-.32-1.107a19.845,19.845,0,0,1-.694,2.364l-1.16,3.348h3.744l-1.2-3.5Q21.8,20.674,21.564,19.918Z" fill="#444444" data-color="color-2"></path><path d="M1,15H4a0,0,0,0,1,0,0v2a0,0,0,0,1,0,0H1a1,1,0,0,1-1-1v0a1,1,0,0,1,1-1Z" fill="#444444" data-color="color-2"></path><path d="M1,23H4a0,0,0,0,1,0,0v2a0,0,0,0,1,0,0H1a1,1,0,0,1-1-1v0a1,1,0,0,1,1-1Z" fill="#444444" data-color="color-2"></path><path d="M1,31H4a0,0,0,0,1,0,0v2a0,0,0,0,1,0,0H1a1,1,0,0,1-1-1v0a1,1,0,0,1,1-1Z" fill="#444444" data-color="color-2"></path><path d="M45,15h3a0,0,0,0,1,0,0v2a0,0,0,0,1,0,0H45a1,1,0,0,1-1-1v0A1,1,0,0,1,45,15Z" transform="translate(92 32) rotate(180)" fill="#444444" data-color="color-2"></path><path d="M45,23h3a0,0,0,0,1,0,0v2a0,0,0,0,1,0,0H45a1,1,0,0,1-1-1v0A1,1,0,0,1,45,23Z" transform="translate(92 48) rotate(180)" fill="#444444" data-color="color-2"></path><path d="M45,31h3a0,0,0,0,1,0,0v2a0,0,0,0,1,0,0H45a1,1,0,0,1-1-1v0A1,1,0,0,1,45,31Z" transform="translate(92 64) rotate(-180)" fill="#444444" data-color="color-2"></path><path d="M16,0h0a1,1,0,0,1,1,1V4a0,0,0,0,1,0,0H15a0,0,0,0,1,0,0V1A1,1,0,0,1,16,0Z" fill="#444444" data-color="color-2"></path><path d="M32,0h0a1,1,0,0,1,1,1V4a0,0,0,0,1,0,0H31a0,0,0,0,1,0,0V1A1,1,0,0,1,32,0Z" fill="#444444" data-color="color-2"></path><path d="M24,0h0a1,1,0,0,1,1,1V4a0,0,0,0,1,0,0H23a0,0,0,0,1,0,0V1A1,1,0,0,1,24,0Z" fill="#444444" data-color="color-2"></path><path d="M15,44h2a0,0,0,0,1,0,0v3a1,1,0,0,1-1,1h0a1,1,0,0,1-1-1V44A0,0,0,0,1,15,44Z" fill="#444444" data-color="color-2"></path><path d="M31,44h2a0,0,0,0,1,0,0v3a1,1,0,0,1-1,1h0a1,1,0,0,1-1-1V44A0,0,0,0,1,31,44Z" fill="#444444" data-color="color-2"></path><path d="M23,44h2a0,0,0,0,1,0,0v3a1,1,0,0,1-1,1h0a1,1,0,0,1-1-1V44A0,0,0,0,1,23,44Z" fill="#444444" data-color="color-2"></path></g></svg>