<?xml version="1.0" encoding="utf-8"?>
<!-- Generator: Adobe Illustrator 26.2.1, SVG Export Plug-In . SVG Version: 6.00 Build 0)  -->
<svg version="1.1" id="Layer_1" xmlns="http://www.w3.org/2000/svg" xmlns:xlink="http://www.w3.org/1999/xlink" x="0px" y="0px"
	 viewBox="0 0 314.4 134.4" style="enable-background:new 0 0 314.4 134.4;" xml:space="preserve">
<style type="text/css">
	.st0{fill:#FFFFFF;}
</style>
<g>
	<path id="Path_433" class="st0" d="M42.4,56.4C27,52.5,23.2,50.6,23.2,44.8v-0.2c0-4.3,3.9-7.7,11.4-7.7c8.4,0.5,16.5,3.6,23.2,8.8
		L67.8,31c-9.4-7.5-21.1-11.5-33.1-11.3c-18.2,0-31.1,10.7-31.1,26.9v0.2c0,17.7,11.5,22.7,29.5,27.2c14.9,3.8,18,6.3,18,11.3v0.2
		c0,5.2-4.8,8.4-12.9,8.4c-9.9-0.3-19.3-4.1-26.6-10.8L0,96.9c10.4,9.3,23.8,14.4,37.8,14.3c19.2,0,32.7-9.9,32.7-27.7v-0.2
		c0-15.6-10.3-22.1-28.3-26.8L42.4,56.4z"/>
	<rect id="Rectangle_817" x="86.1" y="16.8" class="st0" width="20.4" height="17.2"/>
	<rect id="Rectangle_818" x="86.5" y="41.5" class="st0" width="19.4" height="68.2"/>
	<path id="Path_434" class="st0" d="M170.7,50.4c-5.4-6.6-13.5-10.3-22-10.1c-16.6-0.2-30.1,13.1-30.3,29.6c0,0.7,0,1.4,0.1,2.2v0.2
		c-1,16.5,11.5,30.7,28,31.7c0.7,0,1.5,0.1,2.3,0.1c8.8,0.2,17.1-4,22.2-11.1v3.3c0,12.2-6.2,18.6-19.5,18.6c-8.1,0.1-16-2.1-23-6.2
		l-6.6,14.5c9.3,4.8,19.7,7.2,30.2,7.1c10.6,1,21.2-2.3,29.4-9.1c6.4-7.4,9.5-17.1,8.6-26.9V41.5h-19.4L170.7,50.4L170.7,50.4z
		 M170.9,72.3c0,8.7-7.1,15.8-15.8,15.8c-0.3,0-0.5,0-0.8,0c-8.6,0.5-16-6-16.5-14.6c0-0.4,0-0.7,0-1.1v-0.2
		c0.4-9.2,8.2-16.2,17.4-15.8c8.5,0.4,15.4,7.2,15.8,15.8V72.3z"/>
	<path id="Path_435" class="st0" d="M243.9,40.2c-8,0-15.5,4.1-19.9,10.9V16.8h-19.4v92.9H224v-38c0-9.1,4.7-13.8,12.1-13.8
		s11.6,4.7,11.6,13.8v38h19.4V65.6c1.6-12.3-7.1-23.6-19.4-25.2C246.5,40.2,245.2,40.2,243.9,40.2L243.9,40.2z"/>
	<path id="Path_436" class="st0" d="M314.4,58.1V41.6h-16V24.2H279v66.2c0,15.8,8.1,20.5,19.8,20.5c5.4,0.2,10.7-1.2,15.3-3.9V91.4
		c-2.9,1.6-6.3,2.4-9.6,2.4c-4.3,0-6.2-2.2-6.2-6.6V58.1H314.4L314.4,58.1z"/>
</g>
</svg>
