<svg id="Layer_1" data-name="Layer 1" xmlns="http://www.w3.org/2000/svg" viewBox="0 0 20 20"><path d="M11.84,0l-1,3.93c0,.07-.09.17-.15.18l-3.87,1H6.74l0-.19.93-3.7A.28.28,0,0,1,7.93,1Q9.79.52,11.65,0l.11,0Z"/><path d="M0,11.76l.39-1.47C.59,9.5.78,8.71,1,7.91a.21.21,0,0,1,.17-.2L5,6.76l.12,0L4.77,8.11c-.22.85-.43,1.7-.64,2.55a.22.22,0,0,1-.18.2L0,11.84Z"/><path d="M20,7.77l-.39,1.49-.51,2.06s0,.1-.05.16l-.14-.13L16.1,8.55A.23.23,0,0,1,16,8.3l1-3.82s0,0,.09-.12a1,1,0,0,0,.1.18L19.62,7c.14.14.25.31.38.46Z"/><path d="M7.46,20c-.15-.13-.32-.24-.46-.38L4.39,17l.28-.08L8.26,16a.24.24,0,0,1,.26.05L11.43,19l.05.07-1.11.28L7.88,20l-.11,0Z"/><path d="M1.35,6.44c.13-.52.25-1,.38-1.51.17-.71.36-1.42.53-2.14a.66.66,0,0,1,.53-.53l3.5-.87.15,0a1.12,1.12,0,0,1,0,.21C6.09,2.81,5.78,4,5.48,5.28a.24.24,0,0,1-.2.2c-1.28.31-2.56.64-3.84,1Z"/><path d="M10.49,5.4c-.16.62-.31,1.22-.46,1.82s-.34,1.4-.53,2.09c0,.07-.09.17-.15.18l-3.86,1h-.1c.05-.22.1-.43.16-.64.27-1.09.54-2.18.82-3.27,0-.07.09-.17.16-.18l3.87-1Z"/><path d="M15,7.45a1.2,1.2,0,0,1-.16-.15L12.07,4.52A.25.25,0,0,1,12,4.23c.31-1.25.62-2.5.94-3.74a.46.46,0,0,1,0-.13l.15.14L15.9,3.27a.32.32,0,0,1,.09.32C15.66,4.86,15.35,6.14,15,7.45Z"/><path d="M7.44,15l-1.56.39L3.55,16a.29.29,0,0,1-.22-.05L.42,13,.36,13l1.41-.36L4.25,12a.27.27,0,0,1,.23.06c1,.95,1.92,1.9,2.88,2.86Z"/><path d="M15.65,9.77l.15.13,2.79,2.79a.28.28,0,0,1,.09.3c-.32,1.26-.63,2.51-.95,3.76a.26.26,0,0,1,0,.1l-.13-.11-2.81-2.82a.27.27,0,0,1-.09-.23C15,12.39,15.31,11.09,15.65,9.77Z"/><path d="M9.78,15.65l3.05-.77c.29-.07.57-.15.86-.21a.29.29,0,0,1,.2.05l2.91,2.91a.38.38,0,0,1,.05.08l-.62.16L13,18.68a.33.33,0,0,1-.22-.05L9.83,15.72S9.8,15.69,9.78,15.65Z"/><path d="M13.66,12.82l-.13-.13c-.93-.93-1.86-1.86-2.8-2.78a.29.29,0,0,1-.08-.33c.32-1.27.64-2.54,1-3.85a1,1,0,0,1,.15.14l2.8,2.8c.08.07.13.13.09.25-.32,1.26-.63,2.53-1,3.8Z"/><path d="M12.83,13.67l-1.61.41L9,14.64a.3.3,0,0,1-.34-.09L5.89,11.78l-.19-.14.2-.07,3.71-.92a.34.34,0,0,1,.26,0l2.9,2.9Z"/></svg>