<svg xmlns="http://www.w3.org/2000/svg" xmlns:xlink="http://www.w3.org/1999/xlink" width="20" height="13.99" viewBox="0 0 20 13.99">
  <defs>
    <linearGradient id="linear-gradient" x1="0.888" y1="0.5" x2="0.205" y2="0.5" gradientUnits="objectBoundingBox">
      <stop offset="0" stop-color="#0081fb"/>
      <stop offset="0.995" stop-color="#0064e1"/>
    </linearGradient>
    <linearGradient id="linear-gradient-2" x1="0.5" y1="0.872" x2="0.5" y2="0.131" xlink:href="#linear-gradient"/>
  </defs>
  <g id="icons8-meta" transform="translate(-1 -9.5)">
    <path id="Path_451" data-name="Path 451" d="M21,18.609l-.953.763-.951-.7c0-.073,0-.151,0-.229s0-.151,0-.229a10.932,10.932,0,0,0-1.365-5.16,2.908,2.908,0,0,0-2.483-1.605c-1,0-1.822.633-2.726,2.009-.026.041-.057.083-.083.128-.017.023-.03.046-.048.073-.043.069-.087.138-.13.211-.391.642-.8,1.39-1.243,2.215-.039.078-.083.156-.122.234a.423.423,0,0,0-.035.06l-.091.17-.539,1A30.048,30.048,0,0,1,8,21.343C6.9,22.9,5.948,23.49,4.7,23.49a3.208,3.208,0,0,1-3-1.692A6.363,6.363,0,0,1,1,18.646l2.161.078a3.641,3.641,0,0,0,.387,1.8A1.279,1.279,0,0,0,4.7,21.2c.561,0,1.083-.124,2.074-1.573.8-1.16,1.735-2.784,2.365-3.807l.6-.959.126-.211.13-.206.217-.353c.33-.532.687-1.1,1.07-1.637.043-.064.087-.128.135-.193s.091-.128.135-.188a9.884,9.884,0,0,1,1.248-1.422A3.814,3.814,0,0,1,15.335,9.5a4.807,4.807,0,0,1,3.93,2.573,12.018,12.018,0,0,1,1.726,6.077c0,.073,0,.151,0,.229S21,18.531,21,18.609Z" transform="translate(0 0)" fill="#0081fb"/>
    <path id="Path_452" data-name="Path 452" d="M4.918,12.232A5.01,5.01,0,0,1,8.977,9.5a4.248,4.248,0,0,1,2.879,1.143,18.845,18.845,0,0,1,3.66,4.967l.514.9a37.814,37.814,0,0,0,2.36,3.825c.531.678.863.859,1.347.859,1.226,0,1.573-1.165,1.573-2.523l1.906-.063A6.662,6.662,0,0,1,22.5,21.9a2.977,2.977,0,0,1-2.72,1.593,3.3,3.3,0,0,1-2.551-1.07,14.889,14.889,0,0,1-2.057-2.908l-1.794-3.155a21.706,21.706,0,0,0-2.2-3.3,2.936,2.936,0,0,0-2.2-1.263,2.815,2.815,0,0,0-2.21,1.589Z" transform="translate(-2.215 0)" fill="url(#linear-gradient)"/>
    <path id="Path_453" data-name="Path 453" d="M6.761,11.81a2.811,2.811,0,0,0-2.207,1.6,10.7,10.7,0,0,0-1.38,5.381,3.988,3.988,0,0,0,.217,1.8l-1.67,1.3A6.365,6.365,0,0,1,1,18.739a12.822,12.822,0,0,1,1.7-6.488A5.022,5.022,0,0,1,6.77,9.5Z" fill="url(#linear-gradient-2)"/>
    <path id="Path_454" data-name="Path 454" d="M21.337,17.348l-.13.2-.126.2c.309.448.661.987,1.03,1.6l.091-.161a.4.4,0,0,1,.035-.057c.039-.074.083-.148.122-.222C22,18.317,21.65,17.791,21.337,17.348Zm1.422-2.07c-.048.061-.091.122-.135.183.317.4.639.843.978,1.348.043-.07.087-.135.13-.2.017-.026.03-.048.048-.07.026-.043.057-.083.083-.122-.33-.487-.652-.926-.97-1.317C22.85,15.157,22.8,15.217,22.758,15.278Z" transform="translate(-11.35 -2.968)" opacity="0.05"/>
    <path id="Path_455" data-name="Path 455" d="M21.5,17.58l-.13.2c.309.443.657.974,1.03,1.587.039-.074.083-.148.122-.222C22.161,18.549,21.813,18.023,21.5,17.58Zm1.287-1.887c.317.4.639.843.978,1.348.043-.07.087-.135.13-.2-.335-.5-.661-.939-.974-1.33C22.874,15.571,22.831,15.632,22.787,15.693Z" transform="translate(-11.513 -3.195)" opacity="0.07"/>
  </g>
</svg>
