<svg xmlns="http://www.w3.org/2000/svg" xmlns:xlink="http://www.w3.org/1999/xlink" x="0px" y="0px" width="16px" height="16px" viewBox="0 0 16 16"><g transform="translate(0, 0)"><path fill="#444444" d="M15.98,3.196l-0.011-0.002C15.977,3.128,16,3.069,16,3c0-2.916-7.182-3-8-3S0,0.084,0,3 c0,0.069,0.023,0.128,0.031,0.194L0.02,3.196l1.983,9.919C2.117,15.096,5.165,16,8,16s5.883-0.904,5.997-2.884L15.98,3.196z M8,2 c3.137,0,5.155,0.584,5.829,1C13.155,3.416,11.137,4,8,4S2.845,3.416,2.171,3C2.845,2.584,4.863,2,8,2z"></path></g></svg>