<svg xmlns="http://www.w3.org/2000/svg" width="8.036" height="10.037" viewBox="0 0 8.036 10.037">
  <path id="sigma_1_" data-name="sigma (1)" d="M-153.969-205a.443.443,0,0,1,.294.484c-.01.378,0,.758,0,1.137a.374.374,0,0,1-.26.366.349.349,0,0,1-.4-.119.564.564,0,0,1-.088-.271c-.012-.241,0-.483,0-.725v-.113h-6.094c.019.029.032.052.049.073l3.123,3.851c.088.108.186.215.157.364a.6.6,0,0,1-.115.252q-1.572,1.95-3.152,3.892c-.02.025-.039.051-.068.088h6.1v-.512c0-.118,0-.236,0-.353a.373.373,0,0,1,.378-.381.376.376,0,0,1,.377.392q0,.608,0,1.215a.377.377,0,0,1-.4.4H-161.3a.374.374,0,0,1-.366-.214.388.388,0,0,1,.079-.443q1.57-1.931,3.137-3.865c.115-.142.228-.286.347-.425a.09.09,0,0,0,0-.14q-1.567-1.928-3.131-3.858c-.107-.132-.2-.274-.323-.394a.4.4,0,0,1,.142-.7Z" transform="translate(161.711 205)" fill="#fff"/>
</svg>
