<svg xmlns="http://www.w3.org/2000/svg" xmlns:xlink="http://www.w3.org/1999/xlink" x="0px" y="0px" width="16px" height="16px" viewBox="0 0 16 16"><g transform="translate(0, 0)"><path fill="#444444" d="M13,6h2V3c0-1.065-0.935-2-2-2H3C1.935,1,1,1.935,1,3v5h2V3h10V6z"></path> <path fill="#444444" d="M7,10H0v1c0,1.105,0.895,2,2,2h5V10z"></path> <path data-color="color-2" fill="#444444" d="M14,11.586l-1,1V8h-2v4.586l-1-1L8.586,13l2.707,2.707C11.488,15.902,11.744,16,12,16 s0.512-0.098,0.707-0.293L15.414,13L14,11.586z"></path></g></svg>