<svg id="icon-monitor" xmlns="http://www.w3.org/2000/svg" width="48.091" height="41.046" viewBox="0 0 48.091 41.046">
  <path id="Path_376" data-name="Path 376" d="M0,4.007A5.61,5.61,0,0,1,.882,1.883,4.512,4.512,0,0,1,4.577,0H43.425a4.536,4.536,0,0,1,4.536,3.527,4.921,4.921,0,0,1,.128,1.09c0,7.855,0,17.312,0,25.159A4.544,4.544,0,0,1,43.481,34.4H4.633A4.52,4.52,0,0,1,.064,30.545.569.569,0,0,0,0,30.4ZM1.811,28.5v1.154a2.773,2.773,0,0,0,3,2.933H43.345a2.757,2.757,0,0,0,2.925-2.933V28.5ZM46.27,26.649V4.745a3.583,3.583,0,0,0-.112-.922,2.741,2.741,0,0,0-2.837-2H4.809a2.773,2.773,0,0,0-3,2.99V26.657Z" transform="translate(0 0.002)" fill="#fff"/>
  <path id="Path_377" data-name="Path 377" d="M29.091,37h2.741a.89.89,0,0,1,.609,1.507,1.09,1.09,0,0,1-.649.289H26.35a.914.914,0,0,1-.93-.914A.9.9,0,0,1,26.39,37Z" transform="translate(-5.046 -7.342)" fill="#fff"/>
  <path id="Path_378" data-name="Path 378" d="M36.706,49.562H17.9A1.483,1.483,0,0,1,16.42,48.08v-2A1.483,1.483,0,0,1,17.9,44.585h3.07l.361-1.675h1.876l-.337,1.675h8.889l-.345-1.675H33.2l.449,1.675h3.054a1.483,1.483,0,0,1,1.475,1.483v2a1.483,1.483,0,0,1-1.475,1.491ZM18.183,47.791H36.417V46.348H18.183Z" transform="translate(-3.259 -8.516)" fill="#fff"/>
</svg>
