<?xml version="1.0" ?>
<!DOCTYPE svg  PUBLIC '-//W3C//DTD SVG 1.1//EN'  'http://www.w3.org/Graphics/SVG/1.1/DTD/svg11.dtd'>
<svg enable-background="new 0 0 64 64" id="Layer_1" version="1.1" viewBox="0 0 64 64" xml:space="preserve" xmlns="http://www.w3.org/2000/svg" xmlns:xlink="http://www.w3.org/1999/xlink">
<g><path d="M61,56.2V7.8c1.7-0.5,3-1.9,3-3.8c0-2.2-1.8-4-4-4c-1.9,0-3.3,1.3-3.8,3H7.8C7.3,1.3,5.9,0,4,0   C1.8,0,0,1.8,0,4c0,1.9,1.3,3.3,3,3.8v48.4c-1.7,0.5-3,1.9-3,3.8c0,2.2,1.8,4,4,4c1.9,0,3.3-1.3,3.8-3h48.4c0.5,1.7,1.9,3,3.8,3   c2.2,0,4-1.8,4-4C64,58.1,62.7,56.7,61,56.2z M56.2,59H7.8c-0.4-1.4-1.4-2.4-2.8-2.8V7.8C6.4,7.4,7.4,6.4,7.8,5h48.4   c0.4,1.4,1.4,2.5,2.8,2.8v48.3C57.6,56.5,56.6,57.6,56.2,59z" fill="none"/><g><g><rect fill="#FF0000" height="14" width="15" x="8" y="25"/></g></g><g><g><rect fill="#ffffff" height="14" width="14" x="25" y="25"/></g></g><g><g><rect fill="#ffffff" height="15" width="15" x="41" y="8"/></g></g><g><g><rect fill="#FF0000" height="15" width="14" x="25" y="41"/></g></g><g><g><rect fill="#ffffff" height="15" width="15" x="41" y="41"/></g></g><g><g><rect fill="#FF0000" height="15" width="15" x="8" y="41"/></g></g><g><g><rect fill="#ffffff" height="15" width="15" x="8" y="8"/></g></g><g><g><rect fill="#ffffff" height="15" width="14" x="25" y="8"/></g></g><g><g><rect fill="#ffffff" height="14" width="15" x="41" y="25"/></g></g></g></svg>