<svg xmlns="http://www.w3.org/2000/svg" width="17" height="15" viewBox="0 0 17 15">
  <defs>
    <style>
      .cls-1 {
        fill: #fff;
        fill-rule: evenodd;
      }
    </style>
  </defs>
  <path class="cls-1" d="M15.878,9.165l-5.754,3.469a2.47,2.47,0,0,1-2.55,0L1.825,9.165l-0.67.4a0.5,0.5,0,0,0,0,.856L8.6,14.908a0.494,0.494,0,0,0,.51,0l7.441-4.488a0.5,0.5,0,0,0,0-.856Zm0.67-4.585L9.106,0.091a0.494,0.494,0,0,0-.51,0L1.155,4.579a0.5,0.5,0,0,0,0,.856L8.6,9.923a0.5,0.5,0,0,0,.51,0l7.441-4.488A0.5,0.5,0,0,0,16.548,4.579Z"/>
</svg>
