<?xml version="1.0" encoding="utf-8"?>
<!-- Generator: Adobe Illustrator 24.0.2, SVG Export Plug-In . SVG Version: 6.00 Build 0)  -->
<svg version="1.1" id="Capa_1" xmlns="http://www.w3.org/2000/svg" xmlns:xlink="http://www.w3.org/1999/xlink" x="0px" y="0px"
	 viewBox="0 0 300 200" style="enable-background:new 0 0 300 200;" xml:space="preserve">
<g>
	<path d="M249.4,134.6c-2.1-2.3-4.8-3.6-7.8-3.6c-2.4,0-8.6,0.9-11.4,8.7c-0.8,2-0.9,3-2,2.9c-1.7-0.2-8.3-7.2-10.4-17.4l-5.3-24.9
		c4.2-6.8,8.6-12,12.9-15.6c2.3-2,5-2.9,8.1-3c8.3-0.6,11.1-1.7,13.2-3c3.3-2.4,5.1-5.9,5.1-9.8c0-3.5-1.4-6.5-3.8-8.9
		c-2.4-2.3-5.6-3.5-9.2-3.5c-5.3,0-11.3,2.4-18.2,7.5c-4.1,3-8.4,7.4-13.1,13.1c-1.5-5.7-2.9-8.4-3.8-9.9c-3-5-7.8-5-9.5-5h-1.8
		l-49.4,1.2l2.9-11.9c1.8-7.7,4.1-13.8,6.9-18.2c1.4-2.1,3.5-4.7,5.7-4.7c0.9,0,2.4,0.2,5.6,0.8c8.6,1.8,11.7,2.1,13.4,2.1
		c3.6,0,6.9-1.2,9.3-3.6c2.6-2.4,3.9-5.6,3.9-9.2c0-2.7-0.9-6.8-5.3-10.1c-3-2.3-7.1-3.5-12.2-3.5c-7.7,0-15.8,2.4-24.2,7.2
		c-8.3,4.8-15.2,11.4-20.3,19.7c-4.5,7.2-8.4,17.4-11.9,31.1H95.4l-5.3,19.1H112l-16.7,66.9c-3.5,13.8-6,17.3-6.6,18
		c-2,2-5.7,2.4-8.7,2.4c-3.6,0-7.5-0.3-11.4-0.8c-2.7-0.3-4.8-0.5-6.5-0.5c-4.1,0-7.4,1.1-9.9,3.2c-2.9,2.3-4.4,5.6-4.4,9.3
		c0,2.9,0.9,7.1,5.4,10.5c3,2.3,7.2,3.5,12.5,3.5c13.1,0,25.2-5.1,36.1-15.3c10.7-9.9,18.5-24.5,23.1-43.4L138,82.6l44.8,0.8
		l4.8,20.7l-9.8,14.4c-1.8,2.6-4.4,5.9-7.8,9.5c-1.8,2-3,3-3.8,3.6c-2.9-3.5-6-5.3-9.5-5.3c-3.3,0-6.3,1.4-8.6,3.9
		c-2.3,2.4-3.5,5.4-3.5,8.7c0,3.9,1.7,7.4,4.8,10.1c2.9,2.4,6.5,3.8,10.7,3.8c5.3,0,10.5-2,15.8-5.9c4.4-3.3,10.1-9.8,17.3-19.7
		c4.7,13.4,11.3,22.1,14.4,25.5c5,5.7,12.9,9,21.5,9c7.2,0,11.3-3,14.9-5.7l0.3-0.3c6.3-4.7,7.7-9.8,7.7-13.2
		C252.4,139.5,251.3,136.7,249.4,134.6z"/>
</g>
</svg>
