<svg id="icon-chart-resize-3" xmlns="http://www.w3.org/2000/svg" width="15.017" height="15.017" viewBox="0 0 15.017 15.017">
  <path id="Path_277" data-name="Path 277" d="M14.079,15.017H.939A.939.939,0,0,1,0,14.079V.939A.939.939,0,0,1,.939,0h13.14a.939.939,0,0,1,.939.939v13.14A.939.939,0,0,1,14.079,15.017ZM13.14,1.877H5.631V4.693a.939.939,0,0,1-.939.939H1.877V13.14H13.14Z" fill="#6c6b6b"/>
  <path id="Path_278" data-name="Path 278" d="M9.356,11.649H4.664L6.346,9.967,4,7.62,5.327,6.293,7.674,8.639,9.356,6.957Z" transform="translate(1.906 -0.387)" fill="#6c6b6b"/>
</svg>
