<svg xmlns="http://www.w3.org/2000/svg" width="20" height="20" viewBox="0 0 20 20">
  <defs>
    <style>
      .cls-1 {
        fill-rule: evenodd;
      }
    </style>
  </defs>
  <path class="cls-1" d="M18.966,7.176a0.751,0.751,0,0,0-.682-0.485H10.236L11.5,1.056a0.843,0.843,0,0,0-.55-1.009,0.707,0.707,0,0,0-.747.265L1.2,11.986a0.9,0.9,0,0,0,.083,1.176,0.709,0.709,0,0,0,.487.2H9.812L8.545,19a0.868,0.868,0,0,0,.384.942,0.678,0.678,0,0,0,.344.093,0.722,0.722,0,0,0,.569-0.292L18.853,8.067A0.908,0.908,0,0,0,18.966,7.176Z"/>
</svg>
