<svg id="Group_1468" data-name="Group 1468" xmlns="http://www.w3.org/2000/svg" width="12.046" height="12.046" viewBox="0 0 12.046 12.046">
  <path id="Path_388" data-name="Path 388" d="M12.574,5.6,6.4,11.774a6.59,6.59,0,0,0,1.2.151c2.71,0,4.818-2.334,5.722-3.689a1.469,1.469,0,0,0,0-1.732C13.176,6.278,12.875,5.976,12.574,5.6Z" transform="translate(-1.582 -1.384)" fill="#fff"/>
  <path id="Path_389" data-name="Path 389" d="M10.766.226,8.733,2.259a5.635,5.635,0,0,0-2.71-.753C3.313,1.506,1.2,3.84.3,5.195a1.355,1.355,0,0,0,0,1.656A10.626,10.626,0,0,0,2.108,8.884L.226,10.766a.728.728,0,0,0,0,1.054.683.683,0,0,0,.527.226.683.683,0,0,0,.527-.226L11.82,1.28a.728.728,0,0,0,0-1.054A.728.728,0,0,0,10.766.226ZM3.99,7a2.084,2.084,0,0,1-.226-.979A2.218,2.218,0,0,1,6.023,3.764,2.084,2.084,0,0,1,7,3.99Z" transform="translate(0 0)" fill="#fff"/>
</svg>
