<svg xmlns="http://www.w3.org/2000/svg" width="24" height="14" viewBox="0 0 24 14">
  <defs>
    <style>
      .cls-1 {
        fill: #fff;
        fill-rule: evenodd;
      }
    </style>
  </defs>
  <path class="cls-1" d="M9.895,4.158c0,0.388.007,0.775,0,1.163A2.669,2.669,0,0,1,7.506,7.957a6.289,6.289,0,0,1-1.554.028A2.716,2.716,0,0,1,3.422,5.342c-0.03-.829-0.033-1.662,0-2.491A2.731,2.731,0,0,1,6.187.263,7.312,7.312,0,0,1,7.743.326a2.668,2.668,0,0,1,2.14,2.5c0.019,0.442,0,.886,0,1.328H9.895ZM8.311,4.119H8.29a11.274,11.274,0,0,0-.009-1.27A1.117,1.117,0,0,0,7.2,1.8a4.539,4.539,0,0,0-1.093,0A1.147,1.147,0,0,0,5.026,2.919c-0.03.811-.035,1.624,0,2.434A1.191,1.191,0,0,0,6.237,6.475a7.072,7.072,0,0,0,.752,0,1.236,1.236,0,0,0,1.317-1.2C8.336,4.9,8.311,4.507,8.311,4.119ZM18.06,4.206c0,0.351.008,0.7,0,1.052a2.738,2.738,0,0,1-2.514,2.721,3.568,3.568,0,0,1-3.172-.786,2.484,2.484,0,0,1-.794-1.785c-0.005-.867-0.017-1.735,0-2.6A2.682,2.682,0,0,1,14.144.273a7.032,7.032,0,0,1,1.782.072,2.713,2.713,0,0,1,2.131,2.7C18.072,3.43,18.059,3.818,18.06,4.206Zm-1.607-.042c0-.387.015-0.775,0-1.162a1.2,1.2,0,0,0-1.173-1.215,4.546,4.546,0,0,0-.866-0.01A1.193,1.193,0,0,0,13.17,2.985c-0.032.773-.035,1.55,0.005,2.323a1.194,1.194,0,0,0,1.274,1.17,7.248,7.248,0,0,0,.752,0A1.234,1.234,0,0,0,16.45,5.27C16.469,4.9,16.453,4.532,16.452,4.163ZM0.943,6.483a0.775,0.775,0,0,1,.82.739,0.788,0.788,0,0,1-.777.789,0.805,0.805,0,0,1-.83-0.748A0.787,0.787,0,0,1,.943,6.483ZM23.156,10.62H16.018L15.98,9.078h7.176V10.62Zm-4.394,2.661V6.453l1.612-.036v6.865H18.762Z"/>
</svg>
