<svg xmlns="http://www.w3.org/2000/svg" width="30" height="19" viewBox="0 0 30 19">
  <g id="Group_1445" data-name="Group 1445" transform="translate(-45 -170)">
    <g id="Group_1446" data-name="Group 1446" transform="translate(0 1)">
      <rect id="Rectangle_612" data-name="Rectangle 612" width="30" height="3" rx="0.5" transform="translate(45 169)" fill="#fff"/>
      <rect id="Rectangle_621" data-name="Rectangle 621" width="6" height="2" rx="0.3" transform="translate(45 174)" fill="lime"/>
      <rect id="Rectangle_628" data-name="Rectangle 628" width="6" height="2" rx="0.3" transform="translate(53 174)" fill="lime"/>
      <rect id="Rectangle_629" data-name="Rectangle 629" width="6" height="2" rx="0.3" transform="translate(61 174)" fill="lime"/>
      <rect id="Rectangle_630" data-name="Rectangle 630" width="6" height="2" rx="0.3" transform="translate(69 174)" fill="lime"/>
      <rect id="Rectangle_631" data-name="Rectangle 631" width="6" height="2" rx="0.3" transform="translate(45 178)" fill="lime"/>
      <rect id="Rectangle_632" data-name="Rectangle 632" width="6" height="2" rx="0.3" transform="translate(53 178)" fill="#fff"/>
      <rect id="Rectangle_633" data-name="Rectangle 633" width="6" height="2" rx="0.3" transform="translate(61 178)" fill="#fff"/>
      <rect id="Rectangle_634" data-name="Rectangle 634" width="6" height="2" rx="0.3" transform="translate(69 178)" fill="#fff"/>
      <rect id="Rectangle_635" data-name="Rectangle 635" width="6" height="2" rx="0.3" transform="translate(45 182)" fill="lime"/>
      <rect id="Rectangle_636" data-name="Rectangle 636" width="6" height="2" rx="0.3" transform="translate(53 182)" fill="lime"/>
      <rect id="Rectangle_637" data-name="Rectangle 637" width="6" height="2" rx="0.3" transform="translate(61 182)" fill="#fff"/>
      <rect id="Rectangle_638" data-name="Rectangle 638" width="6" height="2" rx="0.3" transform="translate(69 182)" fill="lime"/>
      <rect id="Rectangle_639" data-name="Rectangle 639" width="6" height="2" rx="0.3" transform="translate(45 186)" fill="lime"/>
      <rect id="Rectangle_640" data-name="Rectangle 640" width="6" height="2" rx="0.3" transform="translate(53 186)" fill="lime"/>
      <rect id="Rectangle_641" data-name="Rectangle 641" width="6" height="2" rx="0.3" transform="translate(61 186)" fill="lime"/>
      <rect id="Rectangle_642" data-name="Rectangle 642" width="6" height="2" rx="0.3" transform="translate(69 186)" fill="lime"/>
    </g>
  </g>
</svg>
