<svg id="Group_678" data-name="Group 678" xmlns="http://www.w3.org/2000/svg" width="14.05" height="8.781" viewBox="0 0 14.05 8.781">
  <path id="Path_319" data-name="Path 319" d="M10.756,3H9.878A.83.83,0,0,0,9,3.878a.83.83,0,0,0,.878.878h.878a2.587,2.587,0,0,1,2.634,2.634,2.587,2.587,0,0,1-2.634,2.634H9.878a.878.878,0,0,0,0,1.756h.878a4.348,4.348,0,0,0,4.391-4.391A4.348,4.348,0,0,0,10.756,3Z" transform="translate(-1.097 -3)" fill="#fff"/>
  <path id="Path_320" data-name="Path 320" d="M5.269,10.025H4.391A2.587,2.587,0,0,1,1.756,7.391,2.587,2.587,0,0,1,4.391,4.756h.878a.83.83,0,0,0,.878-.878A.83.83,0,0,0,5.269,3H4.391A4.348,4.348,0,0,0,0,7.391a4.348,4.348,0,0,0,4.391,4.391h.878a.878.878,0,1,0,0-1.756Z" transform="translate(0 -3)" fill="#fff"/>
  <path id="Path_321" data-name="Path 321" d="M4,7.878a.906.906,0,0,0,1.024.878h6.147a.889.889,0,1,0,0-1.756H5.024A.906.906,0,0,0,4,7.878Z" transform="translate(-1.073 -3.487)" fill="#fff"/>
</svg>
