<svg xmlns="http://www.w3.org/2000/svg" xmlns:xlink="http://www.w3.org/1999/xlink" x="0px" y="0px" width="24px" height="24px" viewBox="0 0 24 24"><g transform="translate(0, 0)"><path d="M14,21.991a1.992,1.992,0,0,0-1-1.723V15.991H11v4.277a2,2,0,1,0,3,1.723Z" fill="#444444" data-color="color-2"></path><path d="M6,14v2.586L4.512,18.074a2.033,2.033,0,1,0,1.414,1.414l1.781-1.781A1,1,0,0,0,8,17V14Z" fill="#444444" data-color="color-2"></path><path d="M18,14v2.586l1.488,1.488a2.033,2.033,0,1,1-1.414,1.414l-1.781-1.781A1,1,0,0,1,16,17V14Z" fill="#444444" data-color="color-2"></path><path d="M0,10v2H8a4,4,0,0,1,8,0h8V10l-3.338-.417a8.936,8.936,0,0,0-.826-2L21.9,4.929,19.071,2.1,16.418,4.164a8.936,8.936,0,0,0-2-.826L14,0H10L9.583,3.338a8.936,8.936,0,0,0-2,.826L4.929,2.1,2.1,4.929,4.164,7.582a8.936,8.936,0,0,0-.826,2Z" fill="#444444"></path></g></svg>