<svg xmlns="http://www.w3.org/2000/svg" width="29.792" height="18.511" viewBox="0 0 29.792 18.511">
  <g id="Group_1511" data-name="Group 1511" transform="translate(-44.022 -171.114)">
    <path id="Path_399" data-name="Path 399" d="M-8.514.957h.7V.066A2.394,2.394,0,0,0-5.324-2.211c0-1.628-1.342-1.925-2.486-2.222V-6.512a1.008,1.008,0,0,1,.737.891h1.661a2.312,2.312,0,0,0-2.4-2.156v-.891h-.7v.891a2.36,2.36,0,0,0-2.464,2.255c0,1.628,1.331,1.947,2.464,2.233v2.1a.979.979,0,0,1-.814-.957h-1.65c.033,1.32,1.045,2.079,2.464,2.2Zm1.595-3.1a.983.983,0,0,1-.891.979V-3.091C-7.293-2.915-6.919-2.662-6.919-2.145ZM-9.372-5.6a.908.908,0,0,1,.858-.946v1.9C-9.02-4.818-9.372-5.082-9.372-5.6ZM-.814-2.255A2.392,2.392,0,0,0,1.793.011c2.123,0,2.728-1.474,2.728-4.2,0-2.541-.671-4.015-2.849-4.015A2.5,2.5,0,0,0-1.034-5.544a2.367,2.367,0,0,0,2.5,2.563,2.076,2.076,0,0,0,1.694-.748c0,1.8-.4,2.475-1.3,2.475a1.139,1.139,0,0,1-1.243-1Zm2.6-1.98A1.224,1.224,0,0,1,.44-5.555,1.228,1.228,0,0,1,1.727-6.9,1.219,1.219,0,0,1,3.014-5.533,1.179,1.179,0,0,1,1.782-4.235ZM5.9,0h1.54V-2.6L9.5,0h2L8.8-3.036l2.684-3.058h-2L7.436-3.509V-8.14H5.9Z" transform="translate(55 188.668)" fill="#fff"/>
    <path id="Path_400" data-name="Path 400" d="M-20.956-6.178c0,.435-.242.719-.781.719h-.809V-6.876h.809C-21.2-6.876-20.956-6.607-20.956-6.178Zm-2.557-1.5v4.824h.967v-1.88h.456l1.064,1.88h1.12L-21.059-4.81A1.393,1.393,0,0,0-19.96-6.2c0-.809-.58-1.479-1.741-1.479Zm6.074,1.728a.851.851,0,0,1,.912.822h-1.817A.889.889,0,0,1-17.438-5.95Zm1.817,1.894h-1.044a.789.789,0,0,1-.767.463.9.9,0,0,1-.919-.885h2.8a2.261,2.261,0,0,0,.028-.373A1.8,1.8,0,0,0-17.41-6.745a1.84,1.84,0,0,0-1.921,1.976A1.854,1.854,0,0,0-17.41-2.792,1.779,1.779,0,0,0-15.621-4.057Zm.394-2.626,1.41,3.828h1.175l1.417-3.828h-1.03l-.967,2.937-.967-2.937Zm6.192.733a.851.851,0,0,1,.912.822H-9.94A.889.889,0,0,1-9.035-5.95Zm1.817,1.894H-8.261a.789.789,0,0,1-.767.463.9.9,0,0,1-.919-.885h2.8a2.261,2.261,0,0,0,.028-.373A1.8,1.8,0,0,0-9.007-6.745a1.84,1.84,0,0,0-1.921,1.976A1.854,1.854,0,0,0-9.007-2.792,1.779,1.779,0,0,0-7.217-4.057Zm3.483,1.2h.967V-5.1A1.472,1.472,0,0,0-4.294-6.738a1.43,1.43,0,0,0-1.154.532v-.477h-.967v3.828h.967V-4.969a.831.831,0,0,1,.864-.947.828.828,0,0,1,.85.947Zm5.5-3.828H.792v2.108c0,.615-.332.947-.857.947a.828.828,0,0,1-.85-.947V-6.683h-.967v2.246A1.475,1.475,0,0,0-.348-2.806a1.412,1.412,0,0,0,1.14-.532v.484h.974Zm2.6.733a.851.851,0,0,1,.912.822H3.46A.889.889,0,0,1,4.365-5.95ZM6.182-4.057H5.139a.789.789,0,0,1-.767.463.9.9,0,0,1-.919-.885h2.8a2.261,2.261,0,0,0,.028-.373A1.8,1.8,0,0,0,4.393-6.745,1.84,1.84,0,0,0,2.471-4.769,1.854,1.854,0,0,0,4.393-2.792,1.779,1.779,0,0,0,6.182-4.057Z" transform="translate(67.534 178.792)" fill="#fff"/>
  </g>
</svg>
