<svg xmlns="http://www.w3.org/2000/svg" width="32.8" height="40.076" viewBox="0 0 32.8 40.076">
  <g id="icon-tablet" transform="translate(0 0)">
    <path id="Path_379" data-name="Path 379" d="M4.007,40.075A5.61,5.61,0,0,1,1.9,39.193,4.512,4.512,0,0,1,0,35.5V4.665A4.536,4.536,0,0,1,3.534.128,4.921,4.921,0,0,1,4.616,0H28.172A4.544,4.544,0,0,1,32.8,4.608V35.442a4.52,4.52,0,0,1-3.855,4.569.569.569,0,0,0-.144.064ZM1.827,20.037V35.266a2.773,2.773,0,0,0,2.982,3H28.052a2.773,2.773,0,0,0,2.974-2.958V4.745a2.757,2.757,0,0,0-2.974-2.925H4.809a3.583,3.583,0,0,0-.922.112,2.741,2.741,0,0,0-2.06,2.877Z" transform="translate(0.002 0.001)" fill="#fff"/>
    <path id="Path_380" data-name="Path 380" d="M19.551,4.548h2.741a.858.858,0,0,1,.85.577.8.8,0,0,1-.192.938,1.218,1.218,0,0,1-.657.289H16.858a.922.922,0,0,1-.938-.914.9.9,0,0,1,.938-.9C17.755,4.54,18.653,4.548,19.551,4.548Z" transform="translate(-3.159 -0.9)" fill="#fff"/>
    <path id="Path_381" data-name="Path 381" d="M19.99,44.55a1.819,1.819,0,1,1,0-3.631,1.819,1.819,0,1,1,0,3.631Z" transform="translate(-3.581 -8.121)" fill="#fff"/>
  </g>
</svg>
