<svg xmlns="http://www.w3.org/2000/svg" width="14" height="13.999" viewBox="0 0 14 13.999">
  <g id="accounting" transform="translate(-3.607 -3.606)">
    <path id="Path_68" data-name="Path 68" d="M29.04,36.677A10.83,10.83,0,0,0,33.728,33.8c2.921-2.921,3.96-6.637,2.31-8.283a2.94,2.94,0,0,0-2.145-.782,9.516,9.516,0,0,0-6.142,3.094c-2.921,2.921-3.96,6.637-2.31,8.283A3.627,3.627,0,0,0,29.04,36.677Z" transform="translate(-21.05 -21.124)" fill="#fff"/>
    <path id="Path_71" data-name="Path 71" d="M100.979,38.086l1.34,1.342a2.885,2.885,0,0,0-.772-2.059l-.647-.648a4.691,4.691,0,0,1,.079,1.366Z" transform="translate(-84.712 -31.136)" fill="#fff"/>
    <path id="Path_72" data-name="Path 72" d="M37.654,101.079a4.244,4.244,0,0,1-.924-.109l.642.642h0a3.05,3.05,0,0,0,2.407.769l-1.355-1.358A5.639,5.639,0,0,1,37.654,101.079Z" transform="translate(-31.131 -84.784)" fill="#fff"/>
    <path id="Path_73" data-name="Path 73" d="M67.092,54.445a12.76,12.76,0,0,1-2.932,2.2L65.612,58.1a12.244,12.244,0,0,0,2.945-2.193,10.841,10.841,0,0,0,2.881-4.69,6.3,6.3,0,0,0,.165-.825L70.208,49A10.987,10.987,0,0,1,67.092,54.445Z" transform="translate(-54.035 -41.39)" fill="#fff"/>
    <path id="Path_74" data-name="Path 74" d="M51,97.429c-.071.018-.137.026-.208.043l1.408,1.4a7.621,7.621,0,0,0,1.741-.559L52.491,96.87A8.825,8.825,0,0,1,51,97.429Z" transform="translate(-42.871 -81.361)" fill="#fff"/>
  </g>
</svg>
