<svg xmlns="http://www.w3.org/2000/svg" width="20.231" height="19.816" viewBox="0 0 20.231 19.816">
  <g id="box-plot" transform="translate(0.001)">
    <path id="Path_441" data-name="Path 441" d="M20.229,51.065a.714.714,0,0,1-.761.437q-8.611-.009-17.222,0H2c-.1.515-.285.972-.637.959s-.528-.493-.572-.941c-.382-.141-.8-.311-.791-.6.007-.347.478-.524.8-.6v-.26C.8,45,.8,40.213.8,35.162a1.272,1.272,0,0,1,.015-.272.582.582,0,0,1,.6-.455.59.59,0,0,1,.552.536,2.332,2.332,0,0,1,0,.234v15.12h.249q8.62,0,17.241,0a.729.729,0,0,1,.767.432v.312Z" transform="translate(0 -32.64)" fill="#fff"/>
    <path id="Path_442" data-name="Path 442" d="M253.908,1.691c0-.207,0-.909,0-1.09a.585.585,0,1,1,1.169,0c0,.181,0,.883,0,1.088.188,0,.361,0,.534,0a.586.586,0,0,1,.636.628c0,2.625,0,4.208,0,6.833a.585.585,0,0,1-.638.626c-.168,0-.336,0-.532,0,0,.19,0,.891,0,1.069a.586.586,0,1,1-1.17,0c0-.175,0-.87,0-1.07-.185,0-.358,0-.531,0a.589.589,0,0,1-.639-.626c0-2.625,0-4.208,0-6.833a.585.585,0,0,1,.619-.627c.175,0,.349,0,.551,0Z" transform="translate(-239.568)" fill="lime"/>
    <path id="Path_443" data-name="Path 443" d="M75.391,62.2c0,.208,0,.91,0,1.091a.585.585,0,1,1-1.169,0c0-.181,0-.882,0-1.087-.195,0-.375,0-.554,0a.582.582,0,0,1-.615-.61c0-2.638,0-4.234,0-6.872a.579.579,0,0,1,.6-.6c.181,0,.362,0,.569,0,0-.192,0-.892,0-1.071a.586.586,0,1,1,1.17,0c0,.174,0,.87,0,1.068.193,0,.372,0,.552,0a.582.582,0,0,1,.618.608c0,2.638,0,4.234,0,6.872a.58.58,0,0,1-.6.606c-.181,0-.362,0-.569,0Z" transform="translate(-69.244 -49.688)" fill="lime"/>
    <path id="Path_444" data-name="Path 444" d="M165.229,138.866c0,.207,0,.909,0,1.09a.585.585,0,1,1-1.169,0c0-.181,0-.883,0-1.09-.192,0-.372,0-.551,0a.585.585,0,0,1-.619-.626c0-1.975,0-2.908,0-4.883a.586.586,0,0,1,.619-.627c.175,0,.349,0,.551,0,0-.19,0-.89,0-1.069a.586.586,0,1,1,1.169,0c0,.175,0,.87,0,1.069.186,0,.359,0,.532,0a.588.588,0,0,1,.638.627c0,1.975,0,2.908,0,4.883a.584.584,0,0,1-.619.625c-.175,0-.349,0-.551,0Z" transform="translate(-154.4 -124.211)" fill="#fff"/>
  </g>
</svg>
