<svg xmlns="http://www.w3.org/2000/svg" width="23.182" height="40.076" viewBox="0 0 23.182 40.076">
  <g id="icon-mobile" transform="translate(0 0)">
    <path id="Path_382" data-name="Path 382" d="M4.007,40.075A5.61,5.61,0,0,1,1.9,39.193,4.512,4.512,0,0,1,0,35.5V4.665A4.536,4.536,0,0,1,3.534.128,4.921,4.921,0,0,1,4.616,0H18.554a4.544,4.544,0,0,1,4.625,4.609V35.442a4.52,4.52,0,0,1-3.855,4.569.569.569,0,0,0-.144.064ZM1.827,20.037V35.266a2.773,2.773,0,0,0,2.982,3H18.434a2.773,2.773,0,0,0,2.974-2.958V4.745a2.757,2.757,0,0,0-2.974-2.925H4.809a3.583,3.583,0,0,0-.922.112,2.741,2.741,0,0,0-2.06,2.877Z" transform="translate(0.002 0.001)"/>
    <path id="Path_383" data-name="Path 383" d="M13.551,4.55h2.741a.858.858,0,0,1,.85.577.8.8,0,0,1-.192.938,1.218,1.218,0,0,1-.657.289H10.858a.922.922,0,0,1-.938-.9.9.9,0,0,1,.938-.9C11.755,4.541,12.653,4.55,13.551,4.55Z" transform="translate(-1.968 -0.902)"/>
    <path id="Path_384" data-name="Path 384" d="M13.99,44.55a1.819,1.819,0,1,1,0-3.631,1.819,1.819,0,1,1,0,3.631Z" transform="translate(-2.39 -8.121)"/>
  </g>
</svg>
