<svg xmlns="http://www.w3.org/2000/svg" width="24.956" height="18.185" viewBox="0 0 24.956 18.185">
  <g id="scatter" transform="translate(-0.6)">
    <path id="Path_362" data-name="Path 362" d="M2.922,7A2.352,2.352,0,0,0,.6,9.322a2.235,2.235,0,0,0,2.322,2.322A2.235,2.235,0,0,0,5.243,9.322,2.235,2.235,0,0,0,2.922,7Z" transform="translate(0 6.542)" fill="#fff"/>
    <path id="Path_363" data-name="Path 363" d="M1.3,5.722A2.235,2.235,0,0,0,3.622,8.043,2.235,2.235,0,0,0,5.943,5.722,2.352,2.352,0,0,0,3.622,3.4,2.352,2.352,0,0,0,1.3,5.722Z" transform="translate(0.654 3.178)" fill="#fff"/>
    <path id="Path_364" data-name="Path 364" d="M6,7.622A2.235,2.235,0,0,0,8.322,9.943a2.235,2.235,0,0,0,2.322-2.322h0A2.235,2.235,0,0,0,8.322,5.3,2.235,2.235,0,0,0,6,7.622Z" transform="translate(5.047 4.953)" fill="#fff"/>
    <path id="Path_365" data-name="Path 365" d="M8.4,5.322a2.235,2.235,0,0,0,2.322,2.322,2.235,2.235,0,0,0,2.322-2.322h0A2.235,2.235,0,0,0,10.722,3,2.352,2.352,0,0,0,8.4,5.322Z" transform="translate(7.29 2.804)" fill="#fff"/>
    <path id="Path_366" data-name="Path 366" d="M13.422.6A2.235,2.235,0,0,0,11.1,2.922a2.235,2.235,0,0,0,2.322,2.322,2.235,2.235,0,0,0,2.322-2.322A2.352,2.352,0,0,0,13.422.6Z" transform="translate(9.813 0.561)" fill="#fff"/>
    <path id="Path_367" data-name="Path 367" d="M2.1,8.222a2.235,2.235,0,0,0,2.322,2.322A2.235,2.235,0,0,0,6.743,8.222h0A2.235,2.235,0,0,0,4.422,5.9,2.352,2.352,0,0,0,2.1,8.222Z" transform="translate(1.402 5.514)" fill="lime"/>
    <path id="Path_368" data-name="Path 368" d="M3.4,5.722A2.235,2.235,0,0,0,5.722,8.043,2.235,2.235,0,0,0,8.043,5.722,2.235,2.235,0,0,0,5.722,3.4,2.235,2.235,0,0,0,3.4,5.722Z" transform="translate(2.617 3.178)" fill="lime"/>
    <path id="Path_369" data-name="Path 369" d="M6,6.022A2.235,2.235,0,0,0,8.322,8.343a2.235,2.235,0,0,0,2.322-2.322h0A2.235,2.235,0,0,0,8.322,3.7,2.235,2.235,0,0,0,6,6.022Z" transform="translate(5.047 3.458)" fill="lime"/>
    <path id="Path_370" data-name="Path 370" d="M5.2,2.322A2.235,2.235,0,0,0,7.522,4.643,2.235,2.235,0,0,0,9.843,2.322,2.235,2.235,0,0,0,7.522,0,2.352,2.352,0,0,0,5.2,2.322Z" transform="translate(4.299)" fill="lime"/>
    <path id="Path_371" data-name="Path 371" d="M9.9,8.422a2.235,2.235,0,0,0,2.322,2.322,2.235,2.235,0,0,0,2.322-2.322h0A2.235,2.235,0,0,0,12.222,6.1,2.235,2.235,0,0,0,9.9,8.422Z" transform="translate(8.692 5.701)" fill="lime"/>
  </g>
</svg>
