<?xml version="1.0" ?><!DOCTYPE svg  PUBLIC '-//W3C//DTD SVG 1.1//EN'  'http://www.w3.org/Graphics/SVG/1.1/DTD/svg11.dtd'><svg height="43.3492mm" style="shape-rendering:geometricPrecision; text-rendering:geometricPrecision; image-rendering:optimizeQuality; fill-rule:evenodd; clip-rule:evenodd" version="1.1" viewBox="0 0 4335 4335" width="43.3492mm" xml:space="preserve" xmlns="http://www.w3.org/2000/svg" xmlns:xlink="http://www.w3.org/1999/xlink"><defs><style type="text/css">
   <![CDATA[
    .fil0 {fill:black}
   ]]>
  </style></defs><g id="Layer_x0020_1"><path class="fil0" d="M2143 77c1167,0 2114,946 2114,2114 0,1167 -946,2114 -2114,2114 -1167,0 -2114,-946 -2114,-2114 0,-1167 946,-2114 2114,-2114zm-1083 2695l-7 481 481 7 -474 -487zm538 406l10 10 1437 -1397 -474 -487 -1437 1397 10 10 454 467zm1518 -1456l81 -79c47,-46 49,-123 2,-170l-10 -10 -286 -294 -10 -10c-46,-47 -123,-49 -170,-2l-81 79 474 487z"/></g></svg>