<svg xmlns="http://www.w3.org/2000/svg" xmlns:xlink="http://www.w3.org/1999/xlink" x="0px" y="0px" width="16px" height="16px" viewBox="0 0 16 16"><g transform="translate(0, 0)"><polygon data-color="color-2" fill="#444444" points="9,4 9,11 7,11 7,4 4,4 8,0 12,4 "></polygon> <path fill="#444444" d="M15,16H1c-0.287,0-0.56-0.123-0.75-0.338c-0.19-0.215-0.278-0.501-0.243-0.786l1-8C1.07,6.375,1.496,6,2,6h3 v2H2.883l-0.75,6h11.734l-0.75-6H11V6h3c0.504,0,0.93,0.375,0.992,0.876l1,8c0.036,0.285-0.053,0.571-0.243,0.786 C15.56,15.877,15.287,16,15,16z"></path></g></svg>