<?xml version="1.0" encoding="utf-8"?>
<!-- Generator: Adobe Illustrator 24.0.2, SVG Export Plug-In . SVG Version: 6.00 Build 0)  -->
<svg version="1.1" id="Layer_1" xmlns="http://www.w3.org/2000/svg" xmlns:xlink="http://www.w3.org/1999/xlink" x="0px" y="0px"
	 viewBox="0 0 20 9" style="enable-background:new 0 0 20 9;" xml:space="preserve">
<style type="text/css">
	.st0{fill-rule:evenodd;clip-rule:evenodd;fill:#00BB5A;}
</style>
<path class="st0" d="M4.4,7H2.2L1.8,8.8H0l2.5-8.7h1.7l2.5,8.7H4.9L4.4,7z M2.6,5.6h1.5L3.4,2.9h0L2.6,5.6z M7.4,8.8V0.1h2.5
	c0.8,0,1.5,0.2,2.1,0.6c0.5,0.4,0.8,1.1,0.8,1.8c0,0.4-0.1,0.8-0.3,1.1c-0.2,0.3-0.5,0.6-0.8,0.7c0.4,0.1,0.8,0.3,1.1,0.7
	c0.2,0.4,0.4,0.8,0.4,1.3c0,0.7-0.2,1.4-0.7,1.9c-0.6,0.5-1.3,0.7-2.1,0.6L7.4,8.8L7.4,8.8z M9.1,3.8H10c0.3,0,0.6-0.1,0.8-0.3
	C11,3.3,11.1,3,11.1,2.7c0-0.3-0.1-0.7-0.3-0.9c-0.2-0.2-0.6-0.3-0.9-0.3H9.1V3.8z M9.1,5v2.5h1.2c0.3,0,0.6-0.1,0.8-0.3
	c0.2-0.3,0.3-0.6,0.3-0.9c0-0.3-0.1-0.7-0.3-1C11,5.1,10.7,5,10.4,5C10.4,5,9.1,5,9.1,5z M19.9,6.1L19.9,6.1
	c0.1,0.8-0.2,1.6-0.7,2.1C18.6,8.8,17.9,9,17.1,9c-0.8,0-1.6-0.3-2.2-0.8c-0.6-0.6-0.9-1.5-0.8-2.4V3.2c-0.1-0.9,0.2-1.7,0.8-2.4
	C15.4,0.3,16.2,0,17,0c0.8-0.1,1.6,0.2,2.2,0.7C19.7,1.3,20,2,19.9,2.8l0,0h-1.6c0-0.4-0.1-0.8-0.3-1.2c-0.3-0.2-0.6-0.4-1-0.3
	c-0.4,0-0.7,0.2-1,0.5c-0.2,0.4-0.4,0.9-0.3,1.4v2.6c0,0.5,0.1,1,0.4,1.4c0.2,0.3,0.6,0.5,1,0.5c0.3,0,0.7-0.1,0.9-0.3
	c0.2-0.4,0.3-0.8,0.3-1.2H19.9L19.9,6.1z"/>
</svg>
