<svg xmlns="http://www.w3.org/2000/svg" xmlns:xlink="http://www.w3.org/1999/xlink" x="0px" y="0px" width="12px" height="12px" viewBox="0 0 12 12"><g transform="translate(0, 0)"><path d="M1.764,9a1,1,0,0,0,.745-1.667A2,2,0,0,1,4,4H7.5a.5.5,0,0,0,.354-.854l-3-3A.5.5,0,0,0,4,.5V2A4,4,0,0,0,1.019,8.667.994.994,0,0,0,1.764,9Z" fill="#444444"></path><path data-color="color-2" d="M10.236,3a1,1,0,0,0-.745,1.667A2,2,0,0,1,8,8H4.5a.5.5,0,0,0-.354.854l3,3A.5.5,0,0,0,8,11.5V10a4,4,0,0,0,2.981-6.667A.994.994,0,0,0,10.236,3Z" fill="#444444"></path></g></svg>