<svg xmlns="http://www.w3.org/2000/svg" width="20" height="20" viewBox="0 0 20 20">
  <g id="area-chart" transform="translate(0.021 0)">
    <path id="Path_438" data-name="Path 438" d="M40.632,96.277H23.645a7.9,7.9,0,0,0-.007-.94c-.063-.521.276-.834.665-1.234a4.806,4.806,0,0,0,.488-.63.565.565,0,0,1,.528-.25c1.062.01,2.938-.126,4-.127.334,0,.412-.054.491-.331q.409-1.421.819-2.841c.071-.244.144-.291.429-.308,1.349-.083,2.7-.169,4.047-.251a.4.4,0,0,0,.394-.291c.364-.962.737-1.921,1.1-2.883a.6.6,0,0,1,.379-.374c1.355-.537,1.706-1.083,3.058-1.626.391-.157.6-.042.6.333V96.277Z" transform="translate(-21.324 -78.627)" fill="lime"/>
    <path id="Path_439" data-name="Path 439" d="M23.991,55.324c0-.339,0-.679,0-1.018a.357.357,0,0,1,.075-.167c.307-.465.619-.927.923-1.394a.463.463,0,0,1,.434-.227c.762.007,1.525,0,2.3,0,.186-.746.369-1.482.552-2.218.123-.494.245-.988.37-1.481.063-.25.147-.312.408-.33,1.495-.1,2.989-.2,4.484-.3a.222.222,0,0,0,.236-.2c.274-1.038.561-2.072.833-3.111a.616.616,0,0,1,.4-.458c1.79-.733,3.574-1.478,5.36-2.219.418-.173.607-.048.608.4v1.245a1.481,1.481,0,0,0-1.173.234q-1.924.9-3.849,1.788a1.1,1.1,0,0,0-.613.7c-.335,1.027-.685,2.048-1.013,3.077a.315.315,0,0,1-.328.262c-1.211.08-2.421.174-3.632.257a1.031,1.031,0,0,0-1.05.887c-.245.988-.5,1.974-.733,2.964-.036.149-.1.183-.237.182-.978-.006-1.956,0-2.935-.006a1.064,1.064,0,0,0-.975.526c-.13.206-.27.405-.405.607l-.043-.006Z" transform="translate(-21.669 -40.779)" fill="#fff"/>
    <path id="Path_440" data-name="Path 440" d="M.649,19.333H19.423c.062,0,.125,0,.188,0a.337.337,0,0,1,.368.338c0,.2-.147.322-.379.328-.048,0-.1,0-.146,0H.5c-.437,0-.518-.082-.518-.524V.514A1.307,1.307,0,0,1-.013.285.315.315,0,0,1,.317,0,.314.314,0,0,1,.644.289,1.362,1.362,0,0,1,.649.518V19.334Z" transform="translate(0 0)" fill="#fff"/>
  </g>
</svg>
