<svg xmlns="http://www.w3.org/2000/svg" width="17" height="11" viewBox="0 0 17 11">
  <defs>
    <style>
      .cls-1 {
        fill: #fff;
        fill-rule: evenodd;
      }
    </style>
  </defs>
  <path class="cls-1" d="M3.747,4.043c0-.356,0-0.711,0-1.067A2.678,2.678,0,0,1,6.376.36,7.522,7.522,0,0,1,8.49.42a2.7,2.7,0,0,1,2.289,2.61q0.031,1.066,0,2.134A2.847,2.847,0,0,1,7.658,7.776a7.97,7.97,0,0,1-1.8-.127A2.565,2.565,0,0,1,3.751,5.27c-0.011-.409,0-0.818,0-1.227h0ZM5.467,4.077h0c0,0.338,0,.675,0,1.013a1.063,1.063,0,0,0,.014.159,1.194,1.194,0,0,0,1.2,1.045,5.824,5.824,0,0,0,1.125,0A1.2,1.2,0,0,0,9.034,5.151c0.023-.728.025-1.457,0-2.185a1.265,1.265,0,0,0-1.4-1.174c-0.251-.009-0.5-0.009-0.753,0A1.27,1.27,0,0,0,5.472,2.958C5.446,3.33,5.467,3.7,5.467,4.077ZM1.046,6.332a0.774,0.774,0,0,1,.871.723,0.754,0.754,0,0,1-.866.723A0.729,0.729,0,0,1,.218,7.084,0.75,0.75,0,0,1,1.046,6.332ZM16.227,10.3H8.479L8.438,8.817h7.789V10.3Z"/>
</svg>
