<svg xmlns="http://www.w3.org/2000/svg" width="21" height="21" viewBox="0 0 21 21">
  <g id="Icon_ionic-ios-pie" data-name="Icon ionic-ios-pie" transform="translate(-2.25 -2.25)">
    <path id="Path_428" data-name="Path 428" d="M14.768,4.7V14.962a.372.372,0,0,1-.281.361L5.632,17.6a.189.189,0,0,0-.127.253,9.755,9.755,0,1,0,9.459-13.34A.186.186,0,0,0,14.768,4.7Z" transform="translate(-1.081 -0.755)" fill="lime"/>
    <path id="Path_429" data-name="Path 429" d="M2.25,11.967a11,11,0,0,0,.712,3.8.184.184,0,0,0,.216.1l9.084-2.33a.421.421,0,0,0,.3-.384V2.437a.188.188,0,0,0-.187-.187C5.016,2.339,2.25,7.734,2.25,11.967Z" fill="#fff"/>
  </g>
</svg>
