<svg xmlns="http://www.w3.org/2000/svg" width="20" height="20" viewBox="0 0 20 20">
  <defs>
    <style>
      .cls-1 {
        fill-rule: evenodd;
      }
    </style>
  </defs>
  <path class="cls-1" d="M7.6,18.536v-7.5L5.019,13.5a5.624,5.624,0,0,1,.743-7.375,6.311,6.311,0,0,1,8.624,0,5.649,5.649,0,0,1,0,8.235,6.071,6.071,0,0,1-1.8,1.193l-0.75.323L13.3,19l0.751-.325a9.609,9.609,0,0,0,2.866-1.894,8.963,8.963,0,0,0,0-13.074A9.848,9.848,0,0,0,10.074,1,9.847,9.847,0,0,0,3.23,3.7a8.909,8.909,0,0,0-.772,12.241l-2.714,2.591H7.6Z"/>
</svg>
