<svg xmlns="http://www.w3.org/2000/svg" xmlns:xlink="http://www.w3.org/1999/xlink" x="0px" y="0px" width="16px" height="16px" viewBox="0 0 16 16"><g transform="translate(0, 0)"><path fill="#444444" d="M15.8,7.4C15.6,7.2,15.3,7,15,7H4C3.6,7,3.2,7.2,3.1,7.6l-3,7C-0.1,15.2,0.1,16,1,16h11 c0.4,0,0.8-0.2,0.9-0.6l3-7C16.1,8.1,16,7.7,15.8,7.4z"></path> <path data-color="color-2" fill="#444444" d="M1.2,6.8C1.7,5.7,2.8,5,4,5h9V3c0-0.6-0.4-1-1-1H6.4L4.7,0.3C4.5,0.1,4.3,0,4,0H1 C0.4,0,0,0.4,0,1v8.7L1.2,6.8z"></path></g></svg>