<svg xmlns="http://www.w3.org/2000/svg" width="48.11" height="28.854" viewBox="0 0 48.11 28.854">
  <path id="icon-laptop" d="M44.409,33.473V9.588a1.734,1.734,0,0,0-1.723-1.713H7.66A1.727,1.727,0,0,0,5.937,9.588V33.473H1.118a2.909,2.909,0,0,0,1.894,2.274,13.293,13.293,0,0,0,4.929.982H42.4a13.27,13.27,0,0,0,4.839-.882,3.022,3.022,0,0,0,1.984-2.374H44.409ZM25.173,8.676a.4.4,0,1,1-.4.4A.4.4,0,0,1,25.173,8.676ZM7.74,10.3H42.605a.2.2,0,0,1,.2.2V31.669a.2.2,0,0,1-.2.2H7.74a.2.2,0,0,1-.2-.2V10.5A.2.2,0,0,1,7.74,10.3Zm21.67,23.975H20.935a1.194,1.194,0,0,1-.972-.751H30.382A1,1,0,0,1,29.411,34.274Z" transform="translate(-1.118 -7.875)" fill="#fff"/>
</svg>
