<svg xmlns="http://www.w3.org/2000/svg" xmlns:xlink="http://www.w3.org/1999/xlink" x="0px" y="0px" width="16px" height="16px" viewBox="0 0 16 16"><g transform="translate(0, 0)"><rect x="1" y="3" width="6" height="2" rx="0.5" fill="#444444"></rect><path d="M6.5,11H5V9.5A.5.5,0,0,0,4.5,9h-1a.5.5,0,0,0-.5.5V11H1.5a.5.5,0,0,0-.5.5v1a.5.5,0,0,0,.5.5H3v1.5a.5.5,0,0,0,.5.5h1a.5.5,0,0,0,.5-.5V13H6.5a.5.5,0,0,0,.5-.5v-1A.5.5,0,0,0,6.5,11Z" fill="#444444"></path><path d="M13.414,4l1.44-1.439a.5.5,0,0,0,0-.707l-.708-.708a.5.5,0,0,0-.707,0L12,2.586l-1.439-1.44a.5.5,0,0,0-.707,0l-.708.708a.5.5,0,0,0,0,.707L10.586,4,9.146,5.439a.5.5,0,0,0,0,.707l.708.708a.5.5,0,0,0,.707,0L12,5.414l1.439,1.44a.5.5,0,0,0,.707,0l.708-.708a.5.5,0,0,0,0-.707Z" fill="#444444"></path><rect data-color="color-2" x="9" y="9" width="6" height="2" rx="0.5" fill="#444444"></rect><rect data-color="color-2" x="9" y="13" width="6" height="2" rx="0.5" fill="#444444"></rect></g></svg>