<svg xmlns="http://www.w3.org/2000/svg" xmlns:xlink="http://www.w3.org/1999/xlink" x="0px" y="0px" width="24px" height="24px" viewBox="0 0 24 24"><g transform="translate(0, 0)"><path data-color="color-2" d="M19,3V1a1,1,0,0,0-2,0V3Z" fill="#444444"></path> <path data-color="color-2" d="M7,3V1A1,1,0,0,0,5,1V3Z" fill="#444444"></path> <path d="M21,23H3a3,3,0,0,1-3-3V7A3,3,0,0,1,3,4H21a3,3,0,0,1,3,3V20A3,3,0,0,1,21,23ZM22,9H2V20a1,1,0,0,0,1,1H21a1,1,0,0,0,1-1Z" fill="#444444"></path> <rect data-color="color-2" x="4" y="11" width="4" height="3" fill="#444444"></rect> <rect data-color="color-2" x="10" y="11" width="4" height="3" fill="#444444"></rect> <rect data-color="color-2" x="4" y="16" width="4" height="3" fill="#444444"></rect> <rect data-color="color-2" x="10" y="16" width="4" height="3" fill="#444444"></rect> <rect data-color="color-2" x="16" y="11" width="4" height="3" fill="#444444"></rect></g></svg>