<?xml version="1.0" encoding="utf-8"?>
<!-- Generator: Adobe Illustrator 25.4.1, SVG Export Plug-In . SVG Version: 6.00 Build 0)  -->
<svg version="1.1" id="Layer_1" xmlns="http://www.w3.org/2000/svg" xmlns:xlink="http://www.w3.org/1999/xlink" x="0px" y="0px"
	 viewBox="0 0 12 12" style="enable-background:new 0 0 12 12;" xml:space="preserve">
<style type="text/css">
	.st0{fill-rule:evenodd;clip-rule:evenodd;fill:#333333;}
</style>
<g>
	<path class="st0" d="M3.7,12L3.7,12c-0.4,0-0.8-0.3-0.8-0.7V0.7C2.9,0.3,3.3,0,3.7,0h0c0.4,0,0.7,0.3,0.7,0.7v10.5
		C4.4,11.7,4.1,12,3.7,12z"/>
	<path class="st0" d="M8.3,12L8.3,12c-0.4,0-0.8-0.3-0.8-0.7V0.7C7.6,0.3,7.9,0,8.3,0h0c0.4,0,0.7,0.3,0.7,0.7v10.5
		C9.1,11.7,8.7,12,8.3,12z"/>
	<path class="st0" d="M0,3.7L0,3.7c0-0.4,0.3-0.8,0.7-0.8h10.5c0.4,0,0.7,0.3,0.7,0.7v0c0,0.4-0.3,0.7-0.7,0.7H0.7
		C0.3,4.4,0,4.1,0,3.7z"/>
	<path class="st0" d="M0,8.3L0,8.3c0-0.4,0.3-0.8,0.7-0.8h10.5c0.4,0,0.7,0.3,0.7,0.7v0c0,0.4-0.3,0.7-0.7,0.7H0.8
		C0.3,9.1,0,8.7,0,8.3z"/>
</g>
</svg>
