<svg id="Group_1919" data-name="Group 1919" xmlns="http://www.w3.org/2000/svg" width="20" height="19.021" viewBox="0 0 20 19.021">
  <path id="Path_430" data-name="Path 430" d="M169.389,166.088l-2.488.559v-2.924a1.55,1.55,0,0,1-.711,0v2.925l-2.9-.651a1.526,1.526,0,0,1-.054.356l.465.465,2.267.509-.406.624a1.526,1.526,0,0,1,.626.34l.355-.547,1.428,2.2,1.083.547c.029-.018.059-.033.089-.049l-2.023-3.113,2.519-.565A1.525,1.525,0,0,1,169.389,166.088Z" transform="translate(-156.532 -157.509)" fill="lime"/>
  <path id="Path_431" data-name="Path 431" d="M10,11.407,0,18.672,3.82,30.428H16.18L20,18.672ZM15.389,28.7l-1.535-2.363a1.378,1.378,0,0,1-.589.274l1.646,2.533H5.089l3.1-4.771a1.392,1.392,0,0,1-.511-.394L4.61,28.7,1.6,19.438l2.688.6c0-.028,0-.057,0-.085a1.375,1.375,0,0,1,.114-.549L1.94,18.854l7.738-5.622v2.021a1.375,1.375,0,0,1,.644,0V13.232l7.738,5.622-2.8.629a1.376,1.376,0,0,1,.054.647l3.083-.692Z" transform="translate(0 -11.407)" fill="lime"/>
  <path id="Path_432" data-name="Path 432" d="M117.762,113.3a.842.842,0,0,0-.449.13l-2.305-1.975a.884.884,0,0,0,.061-.324.859.859,0,1,0-1.717,0,.886.886,0,0,0,.052.3l-2.578,2.077a.844.844,0,0,0-.511-.172.875.875,0,0,0,0,1.749.84.84,0,0,0,.345-.074l1.663,1.7a.882.882,0,0,0-.092.392.868.868,0,0,0,.859.875.848.848,0,0,0,.6-.255l2.361,1.216a.882.882,0,0,0-.009.129.859.859,0,1,0,1.717,0,.878.878,0,0,0-.449-.769l.572-3.255a.876.876,0,0,0-.122-1.74Zm-.981,4.9a.851.851,0,0,0-.482.246l-2.361-1.216a.893.893,0,0,0,.009-.129.868.868,0,0,0-.859-.875.84.84,0,0,0-.385.093l-1.644-1.676a.887.887,0,0,0,.076-.683l2.6-2.1a.843.843,0,0,0,.921.014l2.305,1.975a.883.883,0,0,0,.388,1.092Z" transform="translate(-104.271 -105.573)" fill="#fff"/>
</svg>
