<svg xmlns="http://www.w3.org/2000/svg" xmlns:xlink="http://www.w3.org/1999/xlink" x="0px" y="0px" width="32px" height="32px" viewBox="0 0 32 32"><g transform="translate(0, 0)"><path data-color="color-2" d="M9,1A1,1,0,0,0,7,1V4H9Z" fill="#444444"></path> <path data-color="color-2" d="M25,1a1,1,0,0,0-2,0V4h2Z" fill="#444444"></path> <rect data-color="color-2" x="5" y="21" width="6" height="5" fill="#444444"></rect> <rect data-color="color-2" x="5" y="14" width="6" height="5" fill="#444444"></rect> <rect data-color="color-2" x="13" y="21" width="6" height="5" fill="#444444"></rect> <rect data-color="color-2" x="13" y="14" width="6" height="5" fill="#444444"></rect> <rect data-color="color-2" x="21" y="14" width="6" height="5" fill="#444444"></rect> <path d="M27,5H5A4,4,0,0,0,1,9V27a4,4,0,0,0,4,4H27a4,4,0,0,0,4-4V9A4,4,0,0,0,27,5Zm2,22a2,2,0,0,1-2,2H5a2,2,0,0,1-2-2V11H29Z" fill="#444444"></path></g></svg>