<svg xmlns="http://www.w3.org/2000/svg" xmlns:xlink="http://www.w3.org/1999/xlink" x="0px" y="0px" width="24px" height="24px" viewBox="0 0 24 24" stroke-width="2"><g stroke-width="2" transform="translate(0, 0)"><path data-cap="butt" data-color="color-2" fill="none" stroke="#444444" stroke-width="2" stroke-miterlimit="10" d="M1,4v4c0,1.657,2.686,3,6,3 s6-1.343,6-3V4" stroke-linejoin="miter" stroke-linecap="butt"></path> <path data-cap="butt" data-color="color-2" fill="none" stroke="#444444" stroke-width="2" stroke-miterlimit="10" d="M1,8v4c0,1.657,2.686,3,6,3 c1.537,0,2.938-0.29,4-0.765" stroke-linejoin="miter" stroke-linecap="butt"></path> <path data-cap="butt" data-color="color-2" fill="none" stroke="#444444" stroke-width="2" stroke-miterlimit="10" d="M1,12v4c0,1.657,2.686,3,6,3 c1.537,0,2.939-0.289,4-0.764" stroke-linejoin="miter" stroke-linecap="butt"></path> <ellipse data-color="color-2" fill="none" stroke="#444444" stroke-width="2" stroke-linecap="square" stroke-miterlimit="10" cx="7" cy="4" rx="6" ry="3" stroke-linejoin="miter"></ellipse> <path data-cap="butt" fill="none" stroke="#444444" stroke-width="2" stroke-miterlimit="10" d="M11,12v4c0,1.657,2.686,3,6,3s6-1.343,6-3 v-4" stroke-linejoin="miter" stroke-linecap="butt"></path> <path data-cap="butt" fill="none" stroke="#444444" stroke-width="2" stroke-miterlimit="10" d="M11,16v4c0,1.657,2.686,3,6,3 s6-1.343,6-3v-4" stroke-linejoin="miter" stroke-linecap="butt"></path> <ellipse fill="none" stroke="#444444" stroke-width="2" stroke-linecap="square" stroke-miterlimit="10" cx="17" cy="12" rx="6" ry="3" stroke-linejoin="miter"></ellipse></g></svg>