<svg xmlns="http://www.w3.org/2000/svg" xmlns:xlink="http://www.w3.org/1999/xlink" x="0px" y="0px" width="16px" height="16px" viewBox="0 0 16 16"><g transform="translate(0, 0)"><path d="M5.473,7,5.13,5.693H2.865L2.512,7H.442L2.717,0H5.23l2.3,7ZM4.739,4.149,4.438,3c-.069-.255-.155-.584-.255-.987s-.166-.693-.2-.868q-.042.243-.169.8t-.56,2.2Z" fill="#444444" data-color="color-2"></path><path d="M6.714,16H1.261V14.831l3.031-4.3H1.333V9H6.638v1.164L3.607,14.473H6.714Z" fill="#444444" data-color="color-2"></path><polygon points="13 11 13 0 11 0 11 11 8 11 12 16 16 11 13 11" fill="#444444"></polygon></g></svg>