<svg id="Group_687" data-name="Group 687" xmlns="http://www.w3.org/2000/svg" width="13.99" height="12.296" viewBox="0 0 13.99 12.296">
  <path id="Path_322" data-name="Path 322" d="M12.524,10.771,11.3,9.546l2.011-2.011L11.3,5.524,12.524,4.3l2.623,2.623a.845.845,0,0,1,0,1.224Z" transform="translate(-1.419 -1.36)" fill="#fff"/>
  <path id="Path_323" data-name="Path 323" d="M2.886,10.771.262,8.147a.845.845,0,0,1,0-1.224L2.886,4.3,4.11,5.524,2.1,7.535,4.11,9.546Z" transform="translate(0 -1.36)" fill="#fff"/>
  <path id="Path_324" data-name="Path 324" d="M5.879,13.234a.321.321,0,0,1-.262-.087.875.875,0,0,1-.525-1.137L8.59,1.517a.885.885,0,0,1,1.661.612l-3.5,10.493A1.053,1.053,0,0,1,5.879,13.234Z" transform="translate(-0.633 -0.937)" fill="#fff"/>
</svg>
