<?xml version="1.0" ?><!DOCTYPE svg  PUBLIC '-//W3C//DTD SVG 1.1//EN'  'http://www.w3.org/Graphics/SVG/1.1/DTD/svg11.dtd'><svg enable-background="new 0 0 32 32" height="32px" id="fill_x5F_03" version="1.1" viewBox="0 0 32 32" width="32px" xml:space="preserve" xmlns="http://www.w3.org/2000/svg" xmlns:xlink="http://www.w3.org/1999/xlink"><path clip-rule="evenodd" d="M20.696,1.416l-7.293,7.293c-0.552,0.551-2.151,2.15-2.707,2.707  l-1.293,1.293c-0.63,0.629-1.071,1.43-1.274,2.293C8.044,15.324,8,15.664,8,16.012v0.801v1.199v1.199v0.801c0,2.209,1.79,4,4,4h0.8  H14h1.199H16c0.355,0,0.7-0.047,1.028-0.133c0.857-0.205,1.649-0.645,2.274-1.271l1.293-1.293c0.552-0.551,2.151-2.15,2.706-2.705  l7.294-7.295c0.285-0.285,0.849-0.848,1.404-1.402v18.1c0,2.209-1.791,4-4,4H4c-2.209,0-4-1.791-4-4v-24c0-2.209,1.791-4,4-4h18.101  C21.546,0.566,20.982,1.129,20.696,1.416z M23.524,4.244c0.156-0.156,0.361-0.234,0.566-0.234c0.204,0,0.409,0.078,0.565,0.234  l3.111,3.111c0.312,0.312,0.312,0.818,0,1.131l-7.293,7.293c-0.156,0.156-0.361,0.234-0.566,0.234c-0.204,0-0.409-0.078-0.565-0.234  l-3.111-3.111c-0.312-0.312-0.312-0.818,0-1.131L23.524,4.244z M15.199,20.012H14h-1.2H12v-0.801v-1.199v-1.199v-0.801h0.006  c0.02-0.174,0.093-0.342,0.226-0.475l1.293-1.293c0.156-0.156,0.361-0.234,0.565-0.234c0.205,0,0.41,0.078,0.566,0.234l3.111,3.111  c0.312,0.312,0.312,0.818,0,1.131l-1.293,1.293c-0.134,0.135-0.302,0.207-0.475,0.227v0.006H15.199z M31.243,1.686  c0.012,0.018,0.027,0.031,0.039,0.049c0.094,0.135,0.168,0.281,0.244,0.428c0.039,0.074,0.085,0.143,0.118,0.219  c0.063,0.139,0.107,0.289,0.153,0.438C31.827,2.91,31.861,3,31.884,3.094c0.034,0.146,0.051,0.299,0.068,0.451  C31.971,3.699,32,3.852,32,4.012h-0.007c-0.02,0.174-0.093,0.342-0.226,0.475l-1.293,1.293c-0.156,0.156-0.361,0.234-0.565,0.234  c-0.205,0-0.41-0.078-0.566-0.234l-3.111-3.111c-0.312-0.312-0.312-0.818,0-1.131l1.293-1.293C27.657,0.111,27.826,0.039,28,0.018  V0.012c0.158,0,0.31,0.029,0.464,0.047c0.153,0.018,0.307,0.035,0.454,0.07C29.012,0.15,29.1,0.184,29.19,0.213  c0.149,0.047,0.3,0.09,0.441,0.154c0.074,0.033,0.142,0.078,0.214,0.115c0.147,0.078,0.296,0.152,0.433,0.246  c0.015,0.012,0.027,0.025,0.043,0.037C30.677,1.02,30.988,1.332,31.243,1.686z" fill="#010101" fill-rule="evenodd"/></svg>