<svg xmlns="http://www.w3.org/2000/svg" width="14.2" height="8.613" viewBox="0 0 14.2 8.613">
  <g id="icon-trend-master" transform="translate(0 0.007)">
    <path id="Path_159" data-name="Path 159" d="M16.982,8.078c-.185.433-.334.525-.817.525H13.12a.22.22,0,0,1-.213-.114Q11.3,5.834,9.634,3.172a.17.17,0,0,1,0-.22l1.6-2.577a.646.646,0,0,1,1.179,0q2.215,3.55,4.423,7.164a2.428,2.428,0,0,1,.149.305Z" transform="translate(-2.782 0)" fill="orange"/>
    <path id="Path_160" data-name="Path 160" d="M8.676,9.317H.71A.653.653,0,0,1,0,8.728a.8.8,0,0,1,.149-.483L3.067,3.5c.149-.241.3-.49.454-.71a.646.646,0,0,1,1.136,0q2,3.216,3.969,6.44Z" transform="translate(0 -0.714)" fill="orange"/>
  </g>
</svg>
