<svg id="Group_1308" data-name="Group 1308" xmlns="http://www.w3.org/2000/svg" width="12.146" height="12.146" viewBox="0 0 12.146 12.146">
  <circle id="Ellipse_44" data-name="Ellipse 44" cx="1.5" cy="1.5" r="1.5" transform="translate(1)" fill="#fff"/>
  <path id="Path_375" data-name="Path 375" d="M6.832,6.518A.759.759,0,1,0,6.832,5H1.518A1.518,1.518,0,0,0,0,6.518v6.073a.759.759,0,0,0,1.518,0V9.555h.759v3.036a.759.759,0,0,0,1.518,0V6.518Z" transform="translate(0 -1.205)" fill="#fff"/>
  <path id="Path_376" data-name="Path 376" d="M13.073,1H7V2.518h5.314V7.832H7V9.35H9.567l1.308,2.617a.759.759,0,0,0,1.359-.679L11.265,9.35h1.808a.759.759,0,0,0,.759-.759V1.759A.759.759,0,0,0,13.073,1Z" transform="translate(-1.686 -0.241)" fill="#fff"/>
</svg>
