<svg xmlns="http://www.w3.org/2000/svg" width="14" height="14" viewBox="0 0 14 14">
  <g id="Group_999" data-name="Group 999" transform="translate(-38.358)">
    <path id="Path_333" data-name="Path 333" d="M51.483,2.625H47.108a.827.827,0,0,0-.875.875.827.827,0,0,0,.875.875h4.375a.827.827,0,0,0,.875-.875A.827.827,0,0,0,51.483,2.625Z" fill="#fff"/>
    <path id="Path_334" data-name="Path 334" d="M39.233,4.375h.875v1.75A.827.827,0,0,0,40.983,7h2.625a.827.827,0,0,0,.875-.875V.875A.827.827,0,0,0,43.608,0H40.983a.827.827,0,0,0-.875.875v1.75h-.875a.827.827,0,0,0-.875.875A.827.827,0,0,0,39.233,4.375Z" fill="#fff"/>
    <path id="Path_335" data-name="Path 335" d="M39.233,11.375h4.375a.875.875,0,0,0,0-1.75H39.233a.875.875,0,0,0,0,1.75Z" fill="#fff"/>
    <path id="Path_336" data-name="Path 336" d="M51.483,9.625h-.875V7.875A.827.827,0,0,0,49.733,7H47.108a.827.827,0,0,0-.875.875v5.25a.827.827,0,0,0,.875.875h2.625a.827.827,0,0,0,.875-.875v-1.75h.875a.875.875,0,0,0,0-1.75Z" fill="#fff"/>
  </g>
</svg>
