<svg xmlns="http://www.w3.org/2000/svg" width="11.916" height="14.667" viewBox="0 0 11.916 14.667">
  <g id="bookmarks" transform="translate(-47.998)">
    <path id="Path_205" data-name="Path 205" d="M122.192,0h-6.416A1.836,1.836,0,0,0,114,1.375h6.531a2.12,2.12,0,0,1,2.12,2.12v8.733l.63.5a.458.458,0,0,0,.554.014.47.47,0,0,0,.191-.384V1.833A1.833,1.833,0,0,0,122.192,0Z" transform="translate(-64.111)" fill="#fff"/>
    <path id="Path_206" data-name="Path 206" d="M55.789,80H49.831A1.833,1.833,0,0,0,48,81.833V91.9a.469.469,0,0,0,.189.383.458.458,0,0,0,.565-.02l4.058-3.419,4.058,3.418a.458.458,0,0,0,.561.023.47.47,0,0,0,.192-.385V81.833A1.833,1.833,0,0,0,55.789,80Z" transform="translate(0 -77.709)" fill="#fff"/>
  </g>
</svg>
