<?xml version="1.0" encoding="utf-8"?>
<!-- Generator: Adobe Illustrator 24.0.2, SVG Export Plug-In . SVG Version: 6.00 Build 0)  -->
<svg version="1.1" id="Layer_1" xmlns="http://www.w3.org/2000/svg" xmlns:xlink="http://www.w3.org/1999/xlink" x="0px" y="0px"
	 viewBox="0 0 20 9" style="enable-background:new 0 0 20 9;" xml:space="preserve">
<style type="text/css">
	.st0{fill-rule:evenodd;clip-rule:evenodd;fill:#00BB5A;}
</style>
<path class="st0" d="M4.6,8.9H3V1.6l-1.5,0V0.4L4.6,0V8.9z M12.3,8.9H7.2V7.7l2.3-3c0.3-0.4,0.5-0.8,0.7-1.2
	c0.1-0.3,0.2-0.6,0.2-0.9c0-0.3-0.1-0.6-0.2-0.9c-0.1-0.2-0.4-0.3-0.6-0.3C9.3,1.3,9,1.5,8.9,1.8C8.7,2.1,8.6,2.5,8.6,2.8H7l0,0
	c0-0.7,0.2-1.4,0.7-2C8.2,0.3,8.8,0,9.6,0c0.7,0,1.3,0.2,1.8,0.7c0.5,0.5,0.7,1.2,0.7,1.9c0,0.5-0.1,1-0.4,1.5
	c-0.4,0.6-0.8,1.2-1.3,1.8L9.3,7.5h3L12.3,8.9L12.3,8.9z M15.8,3.8c0.3,0,0.6-0.1,0.7-0.3c0.2-0.3,0.3-0.6,0.2-0.9
	c0-0.3-0.1-0.6-0.3-0.8c-0.2-0.2-0.4-0.3-0.7-0.3c-0.2,0-0.5,0.1-0.6,0.3c-0.2,0.2-0.3,0.5-0.3,0.8h-1.6l0,0c0-0.6,0.2-1.3,0.7-1.7
	C14.5,0.2,15.2,0,15.8,0c0.7,0,1.4,0.2,1.9,0.6c0.5,0.5,0.8,1.1,0.7,1.8c0,0.4-0.1,0.8-0.3,1.1c-0.2,0.3-0.5,0.6-0.8,0.8
	c0.4,0.2,0.7,0.4,0.9,0.8c0.2,0.4,0.3,0.8,0.3,1.3c0,0.7-0.2,1.4-0.8,1.9c-0.5,0.5-1.2,0.7-2,0.7c-0.7,0-1.3-0.2-1.8-0.6
	c-0.5-0.5-0.8-1.1-0.7-1.8l0,0h1.6c0,0.3,0.1,0.6,0.3,0.9c0.2,0.2,0.4,0.3,0.7,0.3c0.3,0,0.6-0.1,0.8-0.4c0.2-0.3,0.3-0.6,0.3-0.9
	c0-0.4-0.1-0.7-0.3-1C16.4,5.1,16.1,5,15.8,5h-0.8V3.8L15.8,3.8L15.8,3.8z"/>
</svg>
