<svg xmlns="http://www.w3.org/2000/svg" width="30.069" height="20.441" viewBox="0 0 30.069 20.441">
  <g id="column" transform="translate(-4102 -22343.92)">
    <g id="data1-column1" transform="translate(4102 22355.07)" fill="lime" stroke="rgba(0,0,0,0)" stroke-width="1">
      <rect width="1.928" height="9.291" stroke="none"/>
      <rect x="0.5" y="0.5" width="0.928" height="8.291" fill="none"/>
    </g>
    <g id="data1-column2" transform="translate(4106.723 22343.92)" fill="lime" stroke="rgba(0,0,0,0)" stroke-width="1">
      <rect width="1.928" height="20.439" stroke="none"/>
      <rect x="0.5" y="0.5" width="0.928" height="19.439" fill="none"/>
    </g>
    <g id="data1-column3" transform="translate(4111.349 22350.424)" fill="lime" stroke="rgba(0,0,0,0)" stroke-width="1">
      <rect width="1.928" height="13.936" stroke="none"/>
      <rect x="0.5" y="0.5" width="0.928" height="12.936" fill="none"/>
    </g>
    <g id="data1-column4" transform="translate(4116.071 22361.107)" fill="lime" stroke="rgba(0,0,0,0)" stroke-width="1">
      <rect width="1.928" height="3.252" stroke="none"/>
      <rect x="0.5" y="0.5" width="0.928" height="2.252" fill="none"/>
    </g>
    <g id="data1-column5" transform="translate(4120.793 22345.777)" fill="lime" stroke="rgba(0,0,0,0)" stroke-width="1">
      <rect width="1.928" height="18.581" stroke="none"/>
      <rect x="0.5" y="0.5" width="0.928" height="17.581" fill="none"/>
    </g>
    <g id="data1-column6" transform="translate(4125.419 22352.514)" fill="lime" stroke="rgba(0,0,0,0)" stroke-width="1">
      <rect width="1.928" height="11.846" stroke="none"/>
      <rect x="0.5" y="0.5" width="0.928" height="10.846" fill="none"/>
    </g>
    <g id="data1-column7" transform="translate(4130.142 22344.385)" fill="lime" stroke="rgba(0,0,0,0)" stroke-width="1">
      <rect width="1.928" height="19.975" stroke="none"/>
      <rect x="0.5" y="0.5" width="0.928" height="18.975" fill="none"/>
    </g>
  </g>
</svg>
