<?xml version="1.0" encoding="utf-8"?>
<!-- Generator: Adobe Illustrator 26.2.1, SVG Export Plug-In . SVG Version: 6.00 Build 0)  -->
<svg version="1.1" id="Layer_1" xmlns="http://www.w3.org/2000/svg" xmlns:xlink="http://www.w3.org/1999/xlink" x="0px" y="0px"
	 viewBox="0 0 140 145" style="enable-background:new 0 0 140 145;" xml:space="preserve">
<style type="text/css">
	.st0{fill:#0D22F3;}
</style>
<g>
	<path class="st0" d="M70,0c0.1,0,0.2,0,0.3,0c0.5,0.4,1,0.8,1.5,1.1c19.8,11.5,39.7,22.9,59.5,34.4c1.1,0.6,1.5,1.3,1.5,2.5
		c0,23,0,46.1,0,69.1c0,1.2-0.4,1.9-1.4,2.5c-19.9,11.4-39.8,22.9-59.6,34.5c-1.3,0.8-2.2,0.7-3.4,0c-19.8-11.5-39.6-22.9-59.5-34.4
		c-0.5-0.3-1.1-0.5-1.6-0.7c0-24.2,0-48.4,0-72.7c0.5-0.2,0.9-0.4,1.4-0.7C28.1,24.4,47.7,13,67.3,1.7C68.2,1.2,69.1,0.6,70,0z
		 M125.5,72.7c-0.7-0.4-1.1-0.7-1.5-0.9c-17.6-10.1-35.2-20.2-52.7-30.4c-0.9-0.5-1.6-0.5-2.5,0c-17.5,10.2-35,20.3-52.5,30.4
		c-0.5,0.3-0.9,0.6-1.5,1c0.5,0.3,0.8,0.5,1.1,0.7c17.7,10.2,35.3,20.3,53,30.6c1,0.6,1.6,0.4,2.5-0.1c17.5-10.1,35-20.2,52.5-30.2
		C124.3,73.4,124.8,73.1,125.5,72.7z"/>
	<path class="st0" d="M59.2,61.7c7.3,0,14.5,0,21.7,0c0,7.3,0,14.5,0,21.9c-7.2,0-14.4,0-21.7,0C59.2,76.3,59.2,69,59.2,61.7z"/>
</g>
</svg>
