<?xml version="1.0" encoding="utf-8"?>
<!-- Generator: Adobe Illustrator 23.0.1, SVG Export Plug-In . SVG Version: 6.00 Build 0)  -->
<svg version="1.1" id="Layer_1" xmlns="http://www.w3.org/2000/svg" xmlns:xlink="http://www.w3.org/1999/xlink" x="0px" y="0px"
	 viewBox="0 0 637.7 149.7" style="enable-background:new 0 0 637.7 149.7;" xml:space="preserve">
<style type="text/css">
	.st0{fill:#FFFFFF;}
</style>
<g>
	<path class="st0" d="M385.9,19.9c31.8,0,53.7,20.5,53.7,50.5c0,29.9-22.2,50.5-54.7,50.5h-39.8c-1.4,0-2.6-1.2-2.6-2.6V22.5
		c0-1.4,1.2-2.6,2.6-2.6C345.1,19.9,385.9,19.9,385.9,19.9z M368.2,97.8c0,1.4,1.2,2.6,2.6,2.6h15.7c15.7,0,27-12.1,27-29.9
		c0-17.9-11.8-30.2-28.2-30.2h-14.6c-1.4,0-2.6,1.2-2.6,2.6v54.9H368.2z"/>
	<path class="st0" d="M513.8,70.1v48.2c0,1.4-1.2,2.6-2.6,2.6H492c-1.4,0-2.6-1.2-2.6-2.6l0,0c0-2.2-2.5-3.4-4.2-2.1
		c-5,3.9-11.6,5.9-19.6,5.9c-16.6,0-26.7-10.1-26.7-24.4c0-14.7,10.5-23.4,29.9-23.5h20.5V73c0-7.7-5.1-12.3-15.2-12.3
		c-5.8,0-13.3,1.9-20.8,5.3c-1.4,0.6-3,0-3.6-1.3l-5-11.6c-0.6-1.3,0-2.9,1.3-3.4c11.2-5,21.6-7.7,33.7-7.7
		C501.3,42,513.7,52.5,513.8,70.1z M489.3,94.1v-3.9c0-1.4-1.2-2.6-2.6-2.6h-13.1c-7.5,0-11.3,2.6-11.3,8.4c0,5.6,4,9.2,11,9.2
		c7.6,0,14.2-4.2,15.9-10.3C489.3,94.7,489.3,94.4,489.3,94.1z"/>
	<path class="st0" d="M637.7,70.1v48.2c0,1.4-1.2,2.6-2.6,2.6h-19.2c-1.4,0-2.6-1.2-2.6-2.6l0,0c0-2.2-2.5-3.4-4.2-2.1
		c-5,3.9-11.6,5.9-19.6,5.9c-16.6,0-26.7-10.1-26.7-24.4c0-14.7,10.5-23.4,29.9-23.5h20.5V73c0-7.7-5.1-12.3-15.2-12.3
		c-5.8,0-13.3,1.9-20.8,5.3c-1.4,0.6-3,0-3.6-1.3l-5-11.6c-0.6-1.3,0-2.9,1.3-3.4c11.2-5,21.6-7.7,33.7-7.7
		C625.1,42,637.6,52.5,637.7,70.1z M613.2,94.1v-3.9c0-1.4-1.2-2.6-2.6-2.6h-13.1c-7.5,0-11.3,2.6-11.3,8.4c0,5.6,4,9.2,11,9.2
		c7.6,0,14.2-4.2,15.9-10.3C613.1,94.7,613.2,94.4,613.2,94.1z"/>
	<path class="st0" d="M557.4,103.7c-0.3-1.5-1.7-2.4-3.1-2.1c-1.2,0.3-2.2,0.4-3.2,0.4c-4.6,0.1-7.2-2.5-7.2-8.5V65.7
		c0-1.4,1.2-2.6,2.6-2.6h13.7c1.4,0,2.6-1.2,2.6-2.6V49.3c0-1.4-1.2-2.6-2.6-2.6h-13.7c-1.4,0-2.6-1.2-2.6-2.6V27.8
		c0-1.4-1.2-2.6-2.6-2.6h-19.6c-1.4,0-2.6,1.2-2.6,2.6v19v16.3v34.3c0,16.2,10.8,24.7,25.8,24.7c5.6,0,11.2-1.1,16.1-3.1
		c1.6-0.6,2.1-2.6,1.1-4C559.7,111.8,558.1,108,557.4,103.7z"/>
	<g>
		<path class="st0" d="M6.3,118l48.3,25.9c1.7,0.9,3.9-0.2,3.9-2.1v-25.6c0-5.2-2.5-10.2-6.7-13.6L24.5,80.8c-6-4.8-6-13.5,0-18.2
			l26.1-20.8c5.1-4,8-9.9,8-16.1V2.4c0-1.9-2.2-3-3.9-2.1L6.4,26.2C2.5,28.3,0,32.2,0,36.5v71.3C-0.1,112,2.3,115.9,6.3,118z"/>
		<path class="st0" d="M133.8,26.2L85.5,0.3c-1.7-0.9-3.9,0.2-3.9,2.1v18.2v15.6v72.5v20.8v12.2c0,1.9,2.2,3,3.9,2.1l48.3-25.9
			c3.9-2.1,6.4-6,6.4-10.3V36.3C140.2,32.2,137.8,28.3,133.8,26.2z M118,79.8L97.1,96.5V48.6L118,65.3C122.8,69.1,122.8,76,118,79.8
			z"/>
	</g>
	<path class="st0" d="M252.8,82.5c0,23.5-14.1,39.1-35.7,39.1c-7.4,0-13.8-2.2-18.8-6.2c-2-1.6-4.8-0.2-4.8,2.3l0,0c0,1.7-1.3,3-3,3
		h-18.8c-1.7,0-3-1.3-3-3V17.4c0-1.7,1.3-3,3-3h18.8c1.7,0,3,1.3,3,3v29c0,2.5,2.9,3.9,4.9,2.3c4.9-3.9,11.1-6.1,18.2-6.1
		C238.4,42.6,252.8,58.5,252.8,82.5z M227.9,81.8c0-11.8-7-20.1-17.3-20.1c-10,0-17.1,8.3-17.1,20.1c0,12,7,20.2,17.1,20.2
		C220.9,102,227.9,93.7,227.9,81.8z"/>
	<path class="st0" d="M299.3,128.8c-5.7,14.1-15.5,20.9-29.8,20.9c-7.3,0-13.4-1.8-19.3-5.6c-1.8-1.2-2.4-3.6-1.2-5.5l6.2-10.1
		c1.1-1.9,3.5-2.4,5.4-1.3c2.3,1.3,4.5,1.9,7,1.9c4.4,0,7.6-2,9.6-6.2l1.1-2.2c0.5-1,0.5-2.3,0.1-3.3l-29-68.3
		c-1.1-2.7,0.8-5.6,3.7-5.6h16.4c1.7,0,3.2,1.1,3.8,2.6l13.9,37.8c1.3,3.6,6.4,3.5,7.6-0.1l12.3-37.5c0.5-1.7,2.1-2.8,3.8-2.8h15.8
		c2.8,0,4.8,2.9,3.8,5.5L299.3,128.8z"/>
</g>
</svg>
