<svg id="Group_529" data-name="Group 529" xmlns="http://www.w3.org/2000/svg" width="155" height="77" viewBox="0 0 155 77">
  <rect id="Rectangle_316" data-name="Rectangle 316" width="155" height="77" rx="2" fill="#343434"/>
  <g id="Group_528" data-name="Group 528" transform="translate(20 5)">
    <rect id="Rectangle_317" data-name="Rectangle 317" width="115" height="67" rx="2" fill="#111"/>
  </g>
  <g id="icon-tab-arrow.0fa4fd14" transform="translate(16 45) rotate(180)">
    <path id="Path_257" data-name="Path 257" d="M11.25,0H.75A.709.709,0,0,0,0,.75v10.5A.709.709,0,0,0,.75,12h10.5a.709.709,0,0,0,.75-.75V.75A.709.709,0,0,0,11.25,0ZM6,9V6.75H3V5.25H6V3L9,6Z" fill="#9a9a9a"/>
  </g>
  <g id="icon-tab-arrow.0fa4fd14-2" data-name="icon-tab-arrow.0fa4fd14" transform="translate(141 35)">
    <path id="Path_257-2" data-name="Path 257" d="M11.25,0H.75A.709.709,0,0,0,0,.75v10.5A.709.709,0,0,0,.75,12h10.5a.709.709,0,0,0,.75-.75V.75A.709.709,0,0,0,11.25,0ZM6,9V6.75H3V5.25H6V3L9,6Z" transform="translate(-2 -2)" fill="#9a9a9a"/>
  </g>
</svg>
